if (_typeface_js && _typeface_js.loadFace) _typeface_js.loadFace({"glyphs":{"S":{"x_min":40,"x_max":871.765625,"ha":926,"o":"m 871 275 q 767 60 871 134 q 462 -14 663 -14 q 174 51 278 -14 q 40 248 69 116 l 233 280 q 309 170 252 204 q 467 135 366 135 q 677 263 677 135 q 653 330 677 304 q 585 374 629 357 q 417 417 541 392 q 268 457 310 442 q 192 493 226 473 q 134 543 158 514 q 97 612 111 573 q 84 702 84 651 q 182 901 84 832 q 465 970 279 970 q 731 914 642 970 q 846 730 820 858 l 652 704 q 592 797 637 765 q 460 828 546 828 q 279 714 279 828 q 298 653 279 676 q 355 612 318 629 q 509 570 393 596 q 706 517 647 541 q 800 459 766 492 q 853 380 835 426 q 871 275 871 334 "},"¦":{"x_min":105.90625,"x_max":283.609375,"ha":389,"o":"m 105 458 l 105 986 l 283 986 l 283 458 l 105 458 m 105 -309 l 105 219 l 283 219 l 283 -309 l 105 -309 "},"/":{"x_min":13.5625,"x_max":372.4375,"ha":386,"o":"m 13 -28 l 210 1006 l 372 1006 l 178 -28 l 13 -28 "},"y":{"x_min":10.859375,"x_max":765.53125,"ha":773,"o":"m 192 -288 q 71 -279 123 -288 l 71 -143 q 137 -148 107 -148 q 205 -136 178 -148 q 253 -93 232 -123 q 301 7 274 -63 l 10 734 l 212 734 l 327 389 q 396 163 354 315 l 413 227 l 457 387 l 566 734 l 765 734 l 475 -39 q 353 -233 416 -179 q 192 -288 291 -288 "},"Á":{"x_min":34.59375,"x_max":966.375,"ha":1003,"o":"m 768 0 l 683 244 l 319 244 l 234 0 l 34 0 l 383 956 l 619 956 l 966 0 l 768 0 m 501 808 l 497 793 q 480 738 490 769 q 364 395 471 707 l 638 395 l 544 669 l 515 761 l 501 808 m 389 1038 l 389 1059 l 559 1231 l 734 1231 l 734 1201 l 504 1038 l 389 1038 "},"g":{"x_min":56.9375,"x_max":755.140625,"ha":848,"o":"m 404 -294 q 188 -242 269 -294 q 87 -96 106 -191 l 278 -74 q 321 -143 288 -118 q 409 -168 355 -168 q 525 -119 488 -168 q 561 25 561 -71 l 561 63 l 563 135 l 561 135 q 326 1 498 1 q 127 97 197 1 q 56 372 56 193 q 129 650 56 552 q 340 748 201 748 q 561 615 500 748 l 565 615 q 568 680 565 639 q 574 734 571 721 l 755 734 q 751 564 751 660 l 751 22 q 662 -213 751 -133 q 404 -294 573 -294 m 563 376 q 522 553 563 490 q 408 617 482 617 q 255 372 255 617 q 406 133 255 133 q 522 196 482 133 q 563 376 563 260 "},"²":{"x_min":34.625,"x_max":433.8125,"ha":463,"o":"m 35 471 l 34 552 q 90 629 54 594 q 188 705 126 665 q 268 768 247 743 q 290 819 290 792 q 235 880 290 880 q 170 814 177 880 l 39 817 q 99 925 48 884 q 235 967 151 967 q 374 929 324 967 q 424 824 424 891 q 321 673 424 740 q 224 607 251 628 q 187 564 198 586 l 433 564 l 433 471 l 35 471 "},"–":{"x_min":42.078125,"x_max":730.25,"ha":773,"o":"m 42 304 l 42 442 l 730 442 l 730 304 l 42 304 "},"ë":{"x_min":54.296875,"x_max":725.5,"ha":773,"o":"m 397 -14 q 143 84 232 -14 q 54 369 54 182 q 144 649 54 551 q 400 747 234 747 q 642 642 558 747 q 725 335 725 537 l 725 329 l 254 329 q 294 168 254 222 q 407 113 333 113 q 534 201 508 113 l 714 185 q 397 -14 636 -14 m 397 626 q 294 580 330 626 q 255 449 257 533 l 541 449 q 498 582 535 537 q 397 626 460 626 m 471 813 l 471 962 l 619 962 l 619 813 l 471 813 m 177 813 l 177 962 l 322 962 l 322 813 l 177 813 "},"Î":{"x_min":-57,"x_max":443,"ha":386,"o":"m 92 0 l 92 956 l 293 956 l 293 0 l 92 0 m 443 1057 l 443 1038 l 335 1038 l 197 1140 l 194 1140 l 51 1038 l -57 1038 l -57 1057 l 118 1245 l 273 1245 l 443 1057 "},"e":{"x_min":54.296875,"x_max":725.5,"ha":773,"o":"m 397 -14 q 143 84 232 -14 q 54 369 54 182 q 144 649 54 551 q 400 747 234 747 q 642 642 558 747 q 725 335 725 537 l 725 329 l 254 329 q 294 168 254 222 q 407 113 333 113 q 534 201 508 113 l 714 185 q 397 -14 636 -14 m 397 626 q 294 580 330 626 q 255 449 257 533 l 541 449 q 498 582 535 537 q 397 626 460 626 "},"Ã":{"x_min":34.59375,"x_max":966.375,"ha":1003,"o":"m 768 0 l 683 244 l 319 244 l 234 0 l 34 0 l 383 956 l 619 956 l 966 0 l 768 0 m 501 808 l 497 793 q 480 738 490 769 q 364 395 471 707 l 638 395 l 544 669 l 515 761 l 501 808 m 613 1038 q 553 1050 583 1038 q 495 1079 523 1063 q 441 1108 466 1095 q 395 1121 415 1121 q 352 1106 367 1121 q 328 1038 338 1090 l 236 1038 q 258 1153 241 1114 q 305 1214 274 1191 q 388 1237 337 1237 q 449 1224 419 1237 q 508 1195 480 1211 q 561 1166 537 1179 q 606 1153 586 1153 q 648 1169 633 1153 q 673 1237 663 1186 l 765 1237 q 721 1084 760 1130 q 613 1038 683 1038 "},"J":{"x_min":21.03125,"x_max":677.984375,"ha":773,"o":"m 355 -14 q 127 50 206 -14 q 21 258 47 114 l 219 288 q 265 178 231 213 q 356 142 298 142 q 447 182 416 142 q 478 297 478 222 l 478 799 l 287 799 l 287 956 l 677 956 l 677 302 q 593 69 677 152 q 355 -14 508 -14 "},"»":{"x_min":63.109375,"x_max":711.234375,"ha":773,"o":"m 63 95 l 63 119 l 236 364 l 64 612 l 64 637 l 225 637 l 399 388 l 399 340 l 226 95 l 63 95 m 374 95 l 374 119 l 548 364 l 375 612 l 375 637 l 536 637 l 711 388 l 711 340 l 536 95 l 374 95 "},"©":{"x_min":21.6875,"x_max":1001.984375,"ha":1023,"o":"m 1001 479 q 936 234 1001 348 q 756 54 871 119 q 511 -11 642 -11 q 263 57 378 -11 q 85 238 148 125 q 21 479 21 351 q 87 724 21 610 q 267 904 153 838 q 511 970 381 970 q 757 903 643 970 q 936 724 871 837 q 1001 479 1001 611 m 926 479 q 870 685 926 590 q 718 836 814 780 q 511 892 622 892 q 310 839 405 892 q 157 690 215 786 q 99 479 99 594 q 154 272 99 368 q 305 120 210 176 q 511 64 400 64 q 719 120 623 64 q 870 272 815 176 q 926 479 926 368 m 368 480 q 408 338 368 389 q 520 288 448 288 q 599 313 565 288 q 653 385 634 338 l 762 353 q 663 230 722 268 q 520 193 604 193 q 318 268 389 193 q 246 480 246 343 q 315 690 246 618 q 514 762 385 762 q 662 724 602 762 q 753 606 721 686 l 648 578 q 597 643 630 620 q 517 666 564 666 q 406 618 444 666 q 368 480 368 571 "},"ò":{"x_min":54.234375,"x_max":793.765625,"ha":848,"o":"m 793 367 q 694 87 793 188 q 420 -14 595 -14 q 151 87 249 -14 q 54 367 54 189 q 151 645 54 544 q 425 747 249 747 q 699 648 604 747 q 793 367 793 550 m 594 367 q 551 557 594 498 q 427 616 509 616 q 254 367 254 616 q 296 180 254 244 q 418 116 338 116 q 594 367 594 116 m 452 802 l 221 988 l 221 1018 l 396 1018 l 567 822 l 567 802 l 452 802 "},"^":{"x_min":30.515625,"x_max":780.484375,"ha":811,"o":"m 625 349 l 404 859 l 184 349 l 30 349 l 295 956 l 514 956 l 780 349 l 625 349 "},"«":{"x_min":62.4375,"x_max":710.5625,"ha":773,"o":"m 547 95 l 373 340 l 373 388 l 547 637 l 709 637 l 709 612 l 536 364 l 710 119 l 710 95 l 547 95 m 237 95 l 62 340 l 62 388 l 237 637 l 397 637 l 397 612 l 225 364 l 399 119 l 399 95 l 237 95 "},"D":{"x_min":92.90625,"x_max":944.671875,"ha":1003,"o":"m 944 485 q 886 226 944 337 q 722 58 828 116 q 479 0 616 0 l 92 0 l 92 956 l 438 956 q 812 834 680 956 q 944 485 944 712 m 743 485 q 663 720 743 639 q 434 801 583 801 l 292 801 l 292 154 l 462 154 q 667 243 591 154 q 743 485 743 332 "},"ÿ":{"x_min":10.859375,"x_max":765.53125,"ha":773,"o":"m 192 -288 q 71 -279 123 -288 l 71 -143 q 137 -148 107 -148 q 205 -136 178 -148 q 253 -93 232 -123 q 301 7 274 -63 l 10 734 l 212 734 l 327 389 q 396 163 354 315 l 413 227 l 457 387 l 566 734 l 765 734 l 475 -39 q 353 -233 416 -179 q 192 -288 291 -288 m 468 813 l 468 962 l 616 962 l 616 813 l 468 813 m 174 813 l 174 962 l 319 962 l 319 813 l 174 813 "},"í":{"x_min":77.0625,"x_max":422.96875,"ha":386,"o":"m 98 0 l 98 734 l 288 734 l 288 0 l 98 0 m 77 802 l 77 822 l 247 1018 l 422 1018 l 422 988 l 192 802 l 77 802 "},"ˆ":{"x_min":0,"x_max":499.84375,"ha":463,"o":"m 499 821 l 499 802 l 392 802 l 254 932 l 251 932 l 108 802 l 0 802 l 0 821 l 174 1037 l 330 1037 l 499 821 "},"w":{"x_min":-4.0625,"x_max":1082.71875,"ha":1080,"o":"m 890 0 l 688 0 l 572 447 q 540 598 564 478 l 505 446 l 387 0 l 185 0 l -4 734 l 174 734 l 295 172 l 305 223 l 322 302 l 437 734 l 641 734 l 753 302 q 781 172 763 267 l 800 262 l 906 734 l 1082 734 l 890 0 "},"$":{"x_min":18.328125,"x_max":753.3125,"ha":773,"o":"m 753 279 q 670 89 753 157 q 426 16 588 22 l 426 -102 l 352 -102 l 352 14 q 125 82 207 19 q 18 277 44 146 l 191 309 q 243 196 204 232 q 352 154 281 161 l 352 419 q 342 422 350 420 q 331 424 334 424 q 165 483 221 449 q 79 570 109 517 q 48 698 48 622 q 126 872 48 811 q 352 940 204 934 l 352 1030 l 426 1030 l 426 940 q 575 911 515 936 q 670 839 634 887 q 729 702 707 791 l 550 676 q 510 767 540 735 q 426 807 481 799 l 426 568 l 434 567 q 554 534 454 567 q 703 438 654 502 q 753 279 753 375 m 352 809 q 226 701 226 800 q 237 651 226 671 q 267 619 247 632 q 352 584 287 606 l 352 809 m 576 277 q 564 332 576 310 q 529 367 552 353 q 426 403 505 380 l 426 154 q 576 277 576 164 "},"\\":{"x_min":14.25,"x_max":373.109375,"ha":386,"o":"m 208 -28 l 14 1007 l 175 1007 l 373 -28 l 208 -28 "},"Ì":{"x_min":-27,"x_max":318.21875,"ha":386,"o":"m 92 0 l 92 956 l 293 956 l 293 0 l 92 0 m 203 1038 l -27 1201 l -27 1231 l 147 1231 l 318 1059 l 318 1038 l 203 1038 "},"µ":{"x_min":90.84375,"x_max":716.609375,"ha":800,"o":"m 534 0 q 526 97 526 67 l 524 97 q 471 12 501 38 q 387 -14 440 -14 q 324 2 351 -14 q 281 47 297 18 l 278 47 q 281 -30 281 17 l 281 -289 l 90 -289 l 90 734 l 281 734 l 281 323 q 310 175 281 221 q 400 130 339 130 q 490 182 460 130 q 520 341 520 233 l 520 734 l 711 734 l 711 164 q 716 0 711 75 l 534 0 "},"Ç":{"x_min":56.96875,"x_max":965.015625,"ha":1003,"o":"m 539 143 q 790 325 720 143 l 965 259 q 799 53 908 120 q 539 -14 691 -14 q 182 116 308 -14 q 56 482 56 247 q 178 843 56 717 q 530 970 299 970 q 804 902 698 970 q 952 704 910 835 l 776 656 q 688 770 754 727 q 534 812 623 812 q 328 728 398 812 q 258 482 258 644 q 330 230 258 317 q 539 143 402 143 m 670 -159 q 617 -255 670 -222 q 464 -288 564 -288 q 396 -283 434 -288 l 396 -203 q 453 -208 419 -208 q 546 -161 546 -208 q 527 -126 546 -138 q 463 -115 508 -115 q 427 -116 437 -115 l 470 0 l 567 0 l 544 -55 q 639 -86 608 -58 q 670 -159 670 -114 "},"’":{"x_min":94.296875,"x_max":291.671875,"ha":386,"o":"m 291 823 q 275 681 291 741 q 217 564 258 620 l 94 564 q 183 780 183 678 l 97 780 l 97 956 l 291 956 l 291 823 "},"-":{"x_min":54.3125,"x_max":407.328125,"ha":463,"o":"m 54 277 l 54 443 l 407 443 l 407 277 l 54 277 "},"Q":{"x_min":56.953125,"x_max":1021.6875,"ha":1080,"o":"m 1021 482 q 927 164 1021 291 q 666 3 833 36 q 731 -94 689 -64 q 848 -124 772 -124 q 928 -118 888 -124 l 927 -255 q 763 -274 842 -274 q 580 -212 652 -274 q 463 -7 507 -150 q 163 140 270 11 q 56 482 56 269 q 184 841 56 712 q 538 970 311 970 q 893 839 766 970 q 1021 482 1021 709 m 817 482 q 744 724 817 636 q 538 812 671 812 q 331 725 404 812 q 258 482 258 638 q 332 233 258 324 q 537 142 407 142 q 744 231 671 142 q 817 482 817 319 "},"M":{"x_min":92.90625,"x_max":1064.09375,"ha":1157,"o":"m 886 0 l 886 579 q 886 618 886 599 q 893 787 887 638 q 821 533 845 605 l 649 0 l 507 0 l 335 533 l 262 787 q 270 579 270 630 l 270 0 l 92 0 l 92 956 l 360 956 l 531 421 l 546 369 l 579 241 l 621 394 l 797 956 l 1064 956 l 1064 0 l 886 0 "},"C":{"x_min":56.96875,"x_max":965.015625,"ha":1003,"o":"m 539 143 q 790 325 720 143 l 965 259 q 799 53 908 120 q 539 -14 691 -14 q 182 116 308 -14 q 56 482 56 247 q 178 843 56 717 q 530 970 299 970 q 804 902 698 970 q 952 704 910 835 l 776 656 q 688 770 754 727 q 534 812 623 812 q 328 728 398 812 q 258 482 258 644 q 330 230 258 317 q 539 143 402 143 "},"!":{"x_min":131.03125,"x_max":330.4375,"ha":463,"o":"m 308 289 l 152 289 l 131 956 l 330 956 l 308 289 m 131 0 l 131 183 l 326 183 l 326 0 l 131 0 "},"ç":{"x_min":54.296875,"x_max":732.28125,"ha":773,"o":"m 403 -14 q 145 85 236 -14 q 54 362 54 184 q 145 645 54 544 q 405 747 237 747 q 620 681 535 747 q 726 502 705 616 l 534 493 q 494 582 526 549 q 401 616 461 616 q 254 369 254 616 q 404 116 254 116 q 495 150 458 116 q 541 253 532 184 l 732 244 q 678 109 722 168 q 563 18 634 50 q 403 -14 492 -14 m 537 -159 q 484 -255 537 -222 q 331 -288 431 -288 q 263 -283 301 -288 l 263 -203 q 320 -208 286 -208 q 413 -161 413 -208 q 394 -126 413 -138 q 330 -115 375 -115 q 294 -116 304 -115 l 337 0 l 434 0 l 411 -55 q 506 -86 475 -58 q 537 -159 537 -114 "},"È":{"x_min":92.875,"x_max":871.765625,"ha":926,"o":"m 92 0 l 92 956 l 843 956 l 843 801 l 292 801 l 292 561 l 802 561 l 802 406 l 292 406 l 292 154 l 871 154 l 871 0 l 92 0 m 499 1038 l 269 1201 l 269 1231 l 443 1231 l 614 1059 l 614 1038 l 499 1038 "},"{":{"x_min":22.40625,"x_max":511.8125,"ha":541,"o":"m 378 -288 q 232 -234 287 -288 q 177 -85 177 -181 l 177 136 q 140 252 177 213 q 22 291 103 290 l 22 424 q 141 465 104 427 q 177 580 177 504 l 177 803 q 231 954 177 902 q 378 1006 284 1006 l 511 1006 l 511 877 l 472 877 q 383 841 410 877 q 355 735 355 806 l 355 531 q 316 419 355 466 q 215 360 277 373 l 215 357 q 317 296 279 342 q 355 186 355 249 l 355 -16 q 383 -123 355 -88 q 472 -158 410 -158 l 511 -158 l 511 -288 l 378 -288 "},"X":{"x_min":12.203125,"x_max":913.796875,"ha":926,"o":"m 703 0 l 463 380 l 223 0 l 12 0 l 343 502 l 40 956 l 251 956 l 463 618 l 675 956 l 886 956 l 595 502 l 913 0 l 703 0 "},"ô":{"x_min":54.234375,"x_max":793.765625,"ha":848,"o":"m 793 367 q 694 87 793 188 q 420 -14 595 -14 q 151 87 249 -14 q 54 367 54 189 q 151 645 54 544 q 425 747 249 747 q 699 648 604 747 q 793 367 793 550 m 594 367 q 551 557 594 498 q 427 616 509 616 q 254 367 254 616 q 296 180 254 244 q 418 116 338 116 q 594 367 594 116 m 673 821 l 673 802 l 566 802 l 428 932 l 425 932 l 282 802 l 174 802 l 174 821 l 348 1037 l 504 1037 l 673 821 "},"¼":{"x_min":63.75,"x_max":1092.609375,"ha":1158,"o":"m 368 0 l 232 0 l 839 955 l 975 955 l 368 0 m 63 470 l 63 552 l 188 552 l 188 870 l 71 796 l 71 879 l 193 959 l 311 959 l 311 552 l 427 552 l 427 470 l 63 470 m 1022 95 l 1022 0 l 898 0 l 898 95 l 665 95 l 665 196 l 879 489 l 1022 489 l 1022 190 l 1092 190 l 1092 95 l 1022 95 m 901 395 l 893 382 q 857 322 876 350 l 761 190 l 898 190 l 898 322 l 901 395 "},"#":{"x_min":23.78125,"x_max":750.359375,"ha":773,"o":"m 616 584 l 569 359 l 715 359 l 715 257 l 548 257 l 493 0 l 387 0 l 441 257 l 233 257 l 179 0 l 75 0 l 128 257 l 23 257 l 23 359 l 151 359 l 198 584 l 58 584 l 58 685 l 219 685 l 276 946 l 380 946 l 324 685 l 533 685 l 590 946 l 696 946 l 639 685 l 750 685 l 750 584 l 616 584 m 304 584 l 255 359 l 465 359 l 512 584 l 304 584 "},"Ê":{"x_min":92.875,"x_max":871.765625,"ha":926,"o":"m 92 0 l 92 956 l 843 956 l 843 801 l 292 801 l 292 561 l 802 561 l 802 406 l 292 406 l 292 154 l 871 154 l 871 0 l 92 0 m 733 1057 l 733 1038 l 625 1038 l 487 1140 l 484 1140 l 341 1038 l 233 1038 l 233 1057 l 408 1245 l 563 1245 l 733 1057 "},")":{"x_min":1.359375,"x_max":393.75,"ha":463,"o":"m 1 -288 q 157 22 110 -129 q 205 359 205 173 q 156 699 205 545 q 1 1006 108 852 l 192 1006 q 346 699 299 852 q 393 360 393 547 q 346 19 393 171 q 192 -288 299 -133 l 1 -288 "},"Å":{"x_min":34.59375,"x_max":966.375,"ha":1003,"o":"m 768 0 l 683 244 l 319 244 l 234 0 l 34 0 l 383 956 l 619 956 l 966 0 l 768 0 m 501 808 l 497 793 q 480 738 490 769 q 364 395 471 707 l 638 395 l 544 669 l 515 761 l 501 808 m 673 1052 q 624 930 673 981 q 501 880 574 880 q 379 930 429 880 q 329 1052 329 981 q 379 1174 329 1123 q 501 1225 430 1225 q 623 1174 572 1225 q 673 1052 673 1123 m 587 1052 q 563 1112 587 1087 q 501 1137 538 1137 q 442 1113 467 1137 q 416 1052 416 1088 q 442 989 416 1014 q 501 965 467 965 q 562 990 537 965 q 587 1052 587 1015 "},"ø":{"x_min":0.640625,"x_max":841.921875,"ha":848,"o":"m 793 367 q 694 87 793 188 q 420 -14 595 -14 q 201 46 290 -14 l 124 -37 l 0 -37 l 134 108 q 54 367 54 207 q 151 645 54 544 q 425 747 249 747 q 648 690 559 747 l 717 768 l 841 768 l 717 628 q 793 367 793 531 m 254 367 q 265 256 254 304 l 541 569 q 427 616 500 616 q 254 367 254 616 m 594 367 q 583 477 594 430 l 307 165 q 418 116 349 116 q 594 367 594 116 "},"â":{"x_min":35.71875,"x_max":776.75,"ha":773,"o":"m 261 -14 q 95 44 155 -14 q 35 207 35 102 q 110 380 35 321 q 325 442 184 440 l 483 444 l 483 481 q 458 588 483 553 q 376 623 433 623 q 298 599 323 623 q 267 519 273 575 l 68 529 q 167 691 87 636 q 384 747 246 747 q 599 678 523 747 q 674 483 674 609 l 674 216 q 688 131 674 154 q 734 108 702 108 q 776 112 756 108 l 776 9 q 746 1 759 4 q 719 -3 732 -1 q 690 -7 705 -5 q 654 -8 675 -8 q 548 26 582 -8 q 507 130 514 61 l 503 130 q 261 -14 423 -14 m 483 339 l 385 338 q 291 323 319 335 q 249 287 263 311 q 234 222 234 262 q 258 144 234 169 q 322 118 282 118 q 404 143 367 118 q 462 210 441 167 q 483 302 483 254 l 483 339 m 635 821 l 635 802 l 528 802 l 390 932 l 387 932 l 244 802 l 136 802 l 136 821 l 310 1037 l 466 1037 l 635 821 "},"}":{"x_min":29.1875,"x_max":519.953125,"ha":541,"o":"m 29 -158 l 67 -158 q 157 -123 131 -158 q 184 -16 184 -88 l 184 186 q 223 295 184 249 q 325 357 261 342 l 325 360 q 224 419 263 373 q 184 531 184 466 l 184 735 q 157 841 184 806 q 67 877 131 877 l 29 877 l 29 1006 l 162 1006 q 309 954 256 1006 q 363 803 363 902 l 363 580 q 400 466 363 504 q 519 424 437 427 l 519 291 q 400 251 437 290 q 363 136 363 211 l 363 -85 q 308 -234 363 -180 q 162 -288 254 -288 l 29 -288 l 29 -158 "},"Ä":{"x_min":34.59375,"x_max":966.375,"ha":1003,"o":"m 768 0 l 683 244 l 319 244 l 234 0 l 34 0 l 383 956 l 619 956 l 966 0 l 768 0 m 501 808 l 497 793 q 480 738 490 769 q 364 395 471 707 l 638 395 l 544 669 l 515 761 l 501 808 m 588 1038 l 588 1187 l 722 1187 l 722 1038 l 588 1038 m 280 1038 l 280 1187 l 411 1187 l 411 1038 l 280 1038 "},"¸":{"x_min":65.109375,"x_max":339.109375,"ha":463,"o":"m 339 -159 q 286 -255 339 -222 q 133 -288 233 -288 q 65 -283 103 -288 l 65 -203 q 122 -208 88 -208 q 215 -161 215 -208 q 196 -126 215 -138 q 132 -115 177 -115 q 96 -116 106 -115 l 139 0 l 236 0 l 213 -55 q 308 -86 277 -58 q 339 -159 339 -114 "},"a":{"x_min":40.71875,"x_max":781.75,"ha":773,"o":"m 266 -14 q 100 44 160 -14 q 40 207 40 102 q 115 380 40 321 q 330 442 189 440 l 488 444 l 488 481 q 463 588 488 553 q 381 623 438 623 q 303 599 328 623 q 272 519 278 575 l 73 529 q 172 691 92 636 q 389 747 251 747 q 604 678 528 747 q 679 483 679 609 l 679 216 q 693 131 679 154 q 739 108 707 108 q 781 112 761 108 l 781 9 q 751 1 764 4 q 724 -3 737 -1 q 695 -7 710 -5 q 659 -8 680 -8 q 553 26 587 -8 q 512 130 519 61 l 508 130 q 266 -14 428 -14 m 488 339 l 390 338 q 296 323 324 335 q 254 287 268 311 q 239 222 239 262 q 263 144 239 169 q 327 118 287 118 q 409 143 372 118 q 467 210 446 167 q 488 302 488 254 l 488 339 "},"—":{"x_min":0,"x_max":1389,"ha":1389,"o":"m 0 304 l 0 442 l 1389 442 l 1389 304 l 0 304 "},"=":{"x_min":57.640625,"x_max":754.046875,"ha":811,"o":"m 57 570 l 57 722 l 754 722 l 754 570 l 57 570 m 57 197 l 57 346 l 754 346 l 754 197 l 57 197 "},"N":{"x_min":92.90625,"x_max":909.40625,"ha":1003,"o":"m 674 0 l 258 736 q 270 563 270 628 l 270 0 l 92 0 l 92 956 l 321 956 l 743 213 q 731 400 731 316 l 731 956 l 909 956 l 909 0 l 674 0 "},"˚":{"x_min":26.453125,"x_max":370.984375,"ha":463,"o":"m 370 942 q 321 820 370 871 q 198 770 271 770 q 76 820 126 770 q 26 942 26 871 q 76 1064 26 1013 q 198 1115 127 1115 q 320 1064 269 1115 q 370 942 370 1013 m 284 942 q 260 1002 284 977 q 198 1027 235 1027 q 139 1003 164 1027 q 113 942 113 978 q 139 879 113 904 q 198 855 164 855 q 259 880 234 855 q 284 942 284 905 "},"ú":{"x_min":86.09375,"x_max":756.484375,"ha":848,"o":"m 276 734 l 276 321 q 406 128 276 128 q 518 187 475 128 q 560 340 560 247 l 560 734 l 751 734 l 751 164 q 756 0 751 70 l 574 0 q 566 145 566 97 l 563 145 q 466 23 525 61 q 327 -14 408 -14 q 148 57 210 -14 q 86 267 86 129 l 86 734 l 276 734 m 314 802 l 314 822 l 484 1018 l 659 1018 l 659 988 l 429 802 l 314 802 "},"2":{"x_min":48.1875,"x_max":717.34375,"ha":773,"o":"m 48 0 l 48 132 q 154 292 85 214 q 327 455 223 370 q 468 589 428 536 q 509 693 509 642 q 383 818 509 818 q 290 785 322 818 q 248 687 257 752 l 56 697 q 155 900 72 830 q 382 970 238 970 q 619 899 536 970 q 702 701 702 828 q 675 579 702 634 q 608 479 649 525 q 516 394 566 434 q 417 316 465 354 q 331 239 370 278 q 273 156 292 200 l 717 156 l 717 0 l 48 0 "},"ü":{"x_min":86.09375,"x_max":756.484375,"ha":848,"o":"m 276 734 l 276 321 q 406 128 276 128 q 518 187 475 128 q 560 340 560 247 l 560 734 l 751 734 l 751 164 q 756 0 751 70 l 574 0 q 566 145 566 97 l 563 145 q 466 23 525 61 q 327 -14 408 -14 q 148 57 210 -14 q 86 267 86 129 l 86 734 l 276 734 m 496 813 l 496 962 l 644 962 l 644 813 l 496 813 m 202 813 l 202 962 l 347 962 l 347 813 l 202 813 "},"¯":{"x_min":-11.53125,"x_max":778.59375,"ha":767,"o":"m 778 985 l -11 985 l -11 1048 l 778 1048 l 778 985 "},"Z":{"x_min":41.34375,"x_max":808,"ha":848,"o":"m 808 0 l 41 0 l 41 141 l 557 799 l 92 799 l 92 956 l 780 956 l 780 816 l 263 156 l 808 156 l 808 0 "},"u":{"x_min":86.09375,"x_max":756.484375,"ha":848,"o":"m 276 734 l 276 321 q 406 128 276 128 q 518 187 475 128 q 560 340 560 247 l 560 734 l 751 734 l 751 164 q 756 0 751 70 l 574 0 q 566 145 566 97 l 563 145 q 466 23 525 61 q 327 -14 408 -14 q 148 57 210 -14 q 86 267 86 129 l 86 734 l 276 734 "},"˜":{"x_min":-9.5,"x_max":519.515625,"ha":463,"o":"m 368 802 q 308 814 338 802 q 249 843 278 827 q 195 872 221 859 q 149 885 170 885 q 107 870 122 885 q 83 802 92 854 l -9 802 q 12 917 -4 878 q 60 978 29 955 q 143 1001 91 1001 q 204 988 173 1001 q 263 959 234 975 q 316 930 291 943 q 360 917 341 917 q 403 933 387 917 q 427 1001 418 950 l 519 1001 q 476 848 514 894 q 368 802 438 802 "},"Ó":{"x_min":56.953125,"x_max":1021.6875,"ha":1080,"o":"m 1021 482 q 962 219 1021 332 q 793 46 903 106 q 537 -14 684 -14 q 184 118 312 -14 q 56 482 56 251 q 184 841 56 712 q 538 970 311 970 q 893 839 766 970 q 1021 482 1021 709 m 817 482 q 744 724 817 636 q 538 812 671 812 q 331 725 404 812 q 258 482 258 638 q 333 233 258 324 q 537 143 408 143 q 744 231 671 143 q 817 482 817 319 m 424 1038 l 424 1059 l 594 1231 l 769 1231 l 769 1201 l 539 1038 l 424 1038 "},"k":{"x_min":97.046875,"x_max":774.359375,"ha":773,"o":"m 565 0 l 369 332 l 287 275 l 287 0 l 97 0 l 97 1006 l 287 1006 l 287 430 l 549 734 l 754 734 l 496 447 l 774 0 l 565 0 "},"Ù":{"x_min":83.40625,"x_max":918.234375,"ha":1003,"o":"m 490 -14 q 188 82 292 -14 q 83 357 83 178 l 83 956 l 283 956 l 283 373 q 337 201 283 260 q 495 142 391 142 q 660 204 602 142 q 718 380 718 265 l 718 956 l 918 956 l 918 368 q 806 86 918 186 q 490 -14 693 -14 m 512 1038 l 282 1201 l 282 1231 l 456 1231 l 627 1059 l 627 1038 l 512 1038 "},"€":{"x_min":6.828125,"x_max":748.5625,"ha":773,"o":"m 446 134 q 524 165 495 134 q 560 253 553 197 l 748 242 q 649 50 727 114 q 443 -14 572 -14 q 202 76 290 -14 q 94 345 114 166 l 6 345 l 33 447 l 86 447 l 84 481 l 86 519 l 6 519 l 33 621 l 92 621 q 443 970 135 970 q 644 906 567 970 q 741 726 722 842 l 551 716 q 516 793 545 766 q 437 821 488 821 q 334 773 370 821 q 288 621 299 725 l 510 621 l 491 519 l 285 519 l 284 481 l 286 447 l 517 447 l 496 345 l 290 345 q 446 134 309 134 "},"¢":{"x_min":34.609375,"x_max":741.109375,"ha":773,"o":"m 399 230 q 499 267 458 230 q 549 372 539 304 l 741 363 q 650 191 726 260 q 453 108 574 122 l 453 -21 l 343 -21 l 343 107 q 116 213 197 121 q 34 465 34 305 q 114 718 34 622 q 343 831 194 814 l 343 956 l 453 956 l 453 831 q 641 754 568 818 q 735 588 715 691 l 543 579 q 495 674 533 640 q 397 708 457 708 q 270 645 313 708 q 226 472 226 583 q 271 292 226 353 q 399 230 316 230 "},"ß":{"x_min":96.9375,"x_max":808.6875,"ha":848,"o":"m 808 211 q 740 43 808 101 q 546 -14 672 -14 q 368 15 447 -14 l 368 154 q 448 127 402 139 q 525 114 494 114 q 605 138 580 114 q 630 200 630 161 q 605 265 630 235 q 516 337 579 295 q 401 514 401 411 q 420 583 401 551 q 477 649 439 615 q 536 713 519 685 q 553 771 553 740 q 521 841 553 815 q 430 868 490 868 q 324 825 360 868 q 287 686 287 782 l 287 0 l 96 0 l 96 682 q 183 923 96 841 q 432 1006 269 1006 q 652 944 572 1006 q 733 778 733 883 q 722 713 733 742 q 694 661 711 684 q 657 620 677 638 q 620 586 637 601 q 592 557 603 571 q 581 529 581 543 q 594 497 581 512 q 694 418 608 482 q 808 211 808 333 "},"é":{"x_min":54.296875,"x_max":725.5,"ha":773,"o":"m 397 -14 q 143 84 232 -14 q 54 369 54 182 q 144 649 54 551 q 400 747 234 747 q 642 642 558 747 q 725 335 725 537 l 725 329 l 254 329 q 294 168 254 222 q 407 113 333 113 q 534 201 508 113 l 714 185 q 397 -14 636 -14 m 397 626 q 294 580 330 626 q 255 449 257 533 l 541 449 q 498 582 535 537 q 397 626 460 626 m 284 802 l 284 822 l 454 1018 l 629 1018 l 629 988 l 399 802 l 284 802 "},"s":{"x_min":48.859375,"x_max":715.984375,"ha":773,"o":"m 715 213 q 628 46 715 107 q 387 -14 541 -14 q 155 33 236 -14 q 48 182 75 81 l 216 208 q 265 133 230 155 q 387 112 300 112 q 504 132 467 112 q 541 196 541 152 q 511 252 541 231 q 411 287 481 273 q 193 346 249 319 q 107 417 137 374 q 78 525 78 461 q 159 689 78 630 q 388 748 240 748 q 599 697 519 748 q 699 549 679 646 l 530 532 q 490 599 522 576 q 388 621 458 621 q 286 603 320 621 q 253 545 253 586 q 279 495 253 513 q 367 464 305 476 q 520 428 453 446 q 627 383 587 409 q 691 317 667 357 q 715 213 715 277 "},"B":{"x_min":92.90625,"x_max":939.9375,"ha":1003,"o":"m 939 272 q 842 71 939 142 q 571 0 744 0 l 92 0 l 92 956 l 530 956 q 795 895 705 956 q 885 716 885 834 q 839 578 885 634 q 702 503 794 522 q 879 430 818 489 q 939 272 939 370 m 683 688 q 642 780 683 753 q 520 807 601 807 l 292 807 l 292 571 l 522 571 q 645 600 606 571 q 683 688 683 629 m 739 288 q 546 423 739 423 l 292 423 l 292 148 l 554 148 q 694 183 650 148 q 739 288 739 218 "},"?":{"x_min":63.71875,"x_max":768.015625,"ha":848,"o":"m 768 695 q 738 577 768 630 q 628 468 709 525 l 576 430 q 508 363 530 397 q 483 289 485 329 l 302 289 q 341 412 306 358 q 443 514 376 466 q 546 602 516 564 q 576 687 576 641 q 537 782 576 747 q 426 816 498 816 q 311 776 357 816 q 257 671 265 736 l 63 679 q 176 893 82 816 q 423 970 271 970 q 676 897 584 970 q 768 695 768 824 m 296 0 l 296 183 l 492 183 l 492 0 l 296 0 "},"H":{"x_min":92.90625,"x_max":909.40625,"ha":1003,"o":"m 709 0 l 709 409 l 292 409 l 292 0 l 92 0 l 92 956 l 292 956 l 292 575 l 709 575 l 709 956 l 909 956 l 909 0 l 709 0 "},"î":{"x_min":-56,"x_max":443.84375,"ha":386,"o":"m 98 0 l 98 734 l 288 734 l 288 0 l 98 0 m 443 821 l 443 802 l 336 802 l 198 932 l 195 932 l 52 802 l -56 802 l -56 821 l 118 1037 l 274 1037 l 443 821 "},"c":{"x_min":54.296875,"x_max":732.28125,"ha":773,"o":"m 403 -14 q 145 85 236 -14 q 54 362 54 184 q 145 645 54 544 q 405 747 237 747 q 620 681 535 747 q 726 502 705 616 l 534 493 q 494 582 526 549 q 401 616 461 616 q 254 369 254 616 q 404 116 254 116 q 495 150 458 116 q 541 253 532 184 l 732 244 q 678 109 722 168 q 563 18 634 50 q 403 -14 492 -14 "},"¶":{"x_min":48.1875,"x_max":726.796875,"ha":773,"o":"m 637 859 l 637 -179 l 532 -179 l 532 859 l 399 859 l 399 -179 l 294 -179 l 294 471 q 114 533 179 471 q 48 711 48 596 q 115 891 48 826 q 299 956 181 956 l 726 956 l 726 859 l 637 859 "},"•":{"x_min":44.0625,"x_max":441.265625,"ha":486,"o":"m 441 458 q 382 317 441 376 q 241 258 323 258 q 102 316 160 258 q 44 458 44 375 q 102 598 44 540 q 241 657 159 657 q 382 598 324 657 q 441 458 441 540 "},"¥":{"x_min":5.421875,"x_max":766.890625,"ha":773,"o":"m 519 469 l 707 469 l 707 369 l 477 369 l 477 260 l 707 260 l 707 160 l 477 160 l 477 0 l 293 0 l 293 160 l 65 160 l 65 260 l 293 260 l 294 369 l 65 369 l 65 469 l 252 469 l 5 956 l 201 956 l 384 551 l 570 956 l 766 956 l 519 469 "},"(":{"x_min":69.25,"x_max":461.640625,"ha":463,"o":"m 270 -288 q 116 17 164 -134 q 69 360 69 170 q 116 701 69 549 q 270 1006 164 853 l 461 1006 q 305 698 354 851 q 257 359 257 545 q 305 22 257 174 q 461 -288 353 -130 l 270 -288 "},"U":{"x_min":83.40625,"x_max":918.234375,"ha":1003,"o":"m 490 -14 q 188 82 292 -14 q 83 357 83 178 l 83 956 l 283 956 l 283 373 q 337 201 283 260 q 495 142 391 142 q 660 204 602 142 q 718 380 718 265 l 718 956 l 918 956 l 918 368 q 806 86 918 186 q 490 -14 693 -14 "},"Ñ":{"x_min":92.90625,"x_max":909.40625,"ha":1003,"o":"m 674 0 l 258 736 q 270 563 270 628 l 270 0 l 92 0 l 92 956 l 321 956 l 743 213 q 731 400 731 316 l 731 956 l 909 956 l 909 0 l 674 0 m 614 1038 q 554 1050 584 1038 q 496 1079 524 1063 q 442 1108 467 1095 q 396 1121 416 1121 q 353 1106 368 1121 q 329 1038 339 1090 l 237 1038 q 259 1153 242 1114 q 306 1214 275 1191 q 389 1237 338 1237 q 450 1224 420 1237 q 509 1195 481 1211 q 562 1166 538 1179 q 607 1153 587 1153 q 649 1169 634 1153 q 674 1237 664 1186 l 766 1237 q 722 1084 761 1130 q 614 1038 684 1038 "},"F":{"x_min":92.859375,"x_max":797.15625,"ha":848,"o":"m 292 801 l 292 505 l 781 505 l 781 350 l 292 350 l 292 0 l 92 0 l 92 956 l 797 956 l 797 801 l 292 801 "},"­":{"x_min":54.3125,"x_max":407.328125,"ha":463,"o":"m 54 277 l 54 443 l 407 443 l 407 277 l 54 277 "},":":{"x_min":133.734375,"x_max":329.0625,"ha":463,"o":"m 133 510 l 133 701 l 329 701 l 329 510 l 133 510 m 133 0 l 133 191 l 329 191 l 329 0 l 133 0 "},"Û":{"x_min":83.40625,"x_max":918.234375,"ha":1003,"o":"m 490 -14 q 188 82 292 -14 q 83 357 83 178 l 83 956 l 283 956 l 283 373 q 337 201 283 260 q 495 142 391 142 q 660 204 602 142 q 718 380 718 265 l 718 956 l 918 956 l 918 368 q 806 86 918 186 q 490 -14 693 -14 m 750 1057 l 750 1038 l 642 1038 l 504 1140 l 501 1140 l 358 1038 l 250 1038 l 250 1057 l 425 1245 l 580 1245 l 750 1057 "},"*":{"x_min":4.078125,"x_max":539.640625,"ha":541,"o":"m 333 770 l 493 840 l 539 707 l 369 665 l 496 521 l 371 439 l 272 609 l 171 439 l 44 522 l 173 665 l 4 707 l 50 840 l 212 770 l 200 956 l 346 956 l 333 770 "},"°":{"x_min":60.984375,"x_max":495.359375,"ha":555,"o":"m 495 752 q 432 601 495 664 q 277 539 368 539 q 124 600 188 539 q 60 752 60 662 q 89 860 60 810 q 168 937 118 909 q 277 966 218 966 q 432 903 369 966 q 495 752 495 840 m 388 752 q 356 832 388 799 q 277 864 325 864 q 197 832 229 864 q 165 752 165 799 q 198 672 165 705 q 277 638 231 638 q 355 671 323 638 q 388 752 388 705 "},"V":{"x_min":9.484375,"x_max":916.515625,"ha":926,"o":"m 565 0 l 362 0 l 9 956 l 218 956 l 414 341 q 465 161 433 281 l 479 219 l 513 341 l 709 956 l 916 956 l 565 0 "},"å":{"x_min":35.71875,"x_max":776.75,"ha":773,"o":"m 261 -14 q 95 44 155 -14 q 35 207 35 102 q 110 380 35 321 q 325 442 184 440 l 483 444 l 483 481 q 458 588 483 553 q 376 623 433 623 q 298 599 323 623 q 267 519 273 575 l 68 529 q 167 691 87 636 q 384 747 246 747 q 599 678 523 747 q 674 483 674 609 l 674 216 q 688 131 674 154 q 734 108 702 108 q 776 112 756 108 l 776 9 q 746 1 759 4 q 719 -3 732 -1 q 690 -7 705 -5 q 654 -8 675 -8 q 548 26 582 -8 q 507 130 514 61 l 503 130 q 261 -14 423 -14 m 483 339 l 385 338 q 291 323 319 335 q 249 287 263 311 q 234 222 234 262 q 258 144 234 169 q 322 118 282 118 q 404 143 367 118 q 462 210 441 167 q 483 302 483 254 l 483 339 m 551 970 q 502 848 551 899 q 379 798 452 798 q 257 848 307 798 q 207 970 207 899 q 257 1092 207 1041 q 379 1143 308 1143 q 501 1092 450 1143 q 551 970 551 1041 m 465 970 q 441 1030 465 1005 q 379 1055 416 1055 q 320 1031 345 1055 q 294 970 294 1006 q 320 907 294 932 q 379 883 345 883 q 440 908 415 883 q 465 970 465 933 "}," ":{"x_min":0,"x_max":0,"ha":386},"0":{"x_min":54.96875,"x_max":715.984375,"ha":773,"o":"m 715 478 q 632 110 715 235 q 383 -14 549 -14 q 54 478 54 -14 q 90 758 54 649 q 198 918 126 866 q 388 970 270 970 q 637 847 558 970 q 715 478 715 724 m 524 478 q 511 683 524 610 q 470 788 498 756 q 387 820 441 820 q 300 788 329 820 q 258 683 270 756 q 245 478 245 610 q 258 273 245 347 q 300 167 272 199 q 384 135 329 135 q 468 169 439 135 q 511 277 498 203 q 524 478 524 351 "},"”":{"x_min":102.484375,"x_max":591.6875,"ha":695,"o":"m 591 825 q 574 680 591 743 q 517 564 557 618 l 392 564 q 483 780 483 678 l 397 780 l 397 956 l 591 956 l 591 825 m 299 825 q 282 680 299 741 q 225 564 265 619 l 102 564 q 191 780 191 678 l 105 780 l 105 956 l 299 956 l 299 825 "},"¾":{"x_min":69.859375,"x_max":1092.609375,"ha":1158,"o":"m 368 0 l 232 0 l 839 955 l 975 955 l 368 0 m 1022 95 l 1022 0 l 898 0 l 898 95 l 665 95 l 665 196 l 879 489 l 1022 489 l 1022 190 l 1092 190 l 1092 95 l 1022 95 m 901 395 l 893 382 q 857 322 876 350 l 761 190 l 898 190 l 898 322 l 901 395 m 472 607 q 421 501 472 539 q 277 463 370 463 q 132 499 185 463 q 69 604 78 534 l 198 613 q 275 550 204 550 q 344 615 344 550 q 250 678 344 678 l 212 678 l 212 763 l 246 763 q 311 779 289 763 q 333 824 333 795 q 317 866 333 851 q 272 881 301 881 q 206 820 212 881 l 80 828 q 139 929 87 892 q 276 967 191 967 q 411 932 362 967 q 459 839 459 897 q 435 765 459 796 q 356 723 410 734 l 356 722 q 442 685 413 716 q 472 607 472 653 "},"@":{"x_min":79.328125,"x_max":1273.3125,"ha":1354,"o":"m 1273 491 q 1230 266 1273 368 q 1111 107 1187 164 q 947 50 1035 50 q 851 80 884 50 q 817 166 817 111 q 821 212 817 191 l 817 212 q 716 95 783 140 q 580 50 650 50 q 415 118 473 50 q 356 311 356 187 q 400 518 356 421 q 521 670 444 615 q 695 726 599 726 q 874 607 827 726 l 878 607 l 905 711 l 1010 711 l 931 367 q 906 205 906 251 q 922 157 906 171 q 959 142 938 142 q 1063 190 1013 142 q 1141 316 1112 237 q 1170 490 1170 395 q 1118 700 1170 608 q 968 840 1066 791 q 741 890 871 890 q 454 819 579 890 q 260 613 330 747 q 189 312 189 479 q 243 80 189 180 q 394 -71 296 -19 q 623 -122 492 -122 q 1023 -17 823 -122 l 1065 -99 q 842 -192 951 -164 q 619 -220 733 -220 q 337 -155 459 -220 q 147 31 215 -90 q 79 312 79 154 q 165 659 79 504 q 402 900 250 815 q 740 986 553 986 q 1025 924 905 986 q 1209 751 1146 863 q 1273 491 1273 639 m 834 488 q 794 593 834 553 q 690 634 753 634 q 575 592 626 634 q 497 472 525 549 q 469 312 469 394 q 502 190 469 235 q 602 145 534 145 q 689 174 647 145 q 765 256 732 202 q 816 379 798 310 q 834 488 834 448 "},"ö":{"x_min":54.234375,"x_max":793.765625,"ha":848,"o":"m 793 367 q 694 87 793 188 q 420 -14 595 -14 q 151 87 249 -14 q 54 367 54 189 q 151 645 54 544 q 425 747 249 747 q 699 648 604 747 q 793 367 793 550 m 594 367 q 551 557 594 498 q 427 616 509 616 q 254 367 254 616 q 296 180 254 244 q 418 116 338 116 q 594 367 594 116 m 497 813 l 497 962 l 645 962 l 645 813 l 497 813 m 203 813 l 203 962 l 348 962 l 348 813 l 203 813 "},"i":{"x_min":97.015625,"x_max":287.59375,"ha":386,"o":"m 97 865 l 97 1006 l 287 1006 l 287 865 l 97 865 m 97 0 l 97 734 l 287 734 l 287 0 l 97 0 "},"Õ":{"x_min":56.953125,"x_max":1021.6875,"ha":1080,"o":"m 1021 482 q 962 219 1021 332 q 793 46 903 106 q 537 -14 684 -14 q 184 118 312 -14 q 56 482 56 251 q 184 841 56 712 q 538 970 311 970 q 893 839 766 970 q 1021 482 1021 709 m 817 482 q 744 724 817 636 q 538 812 671 812 q 331 725 404 812 q 258 482 258 638 q 333 233 258 324 q 537 143 408 143 q 744 231 671 143 q 817 482 817 319 m 647 1038 q 587 1050 617 1038 q 529 1079 557 1063 q 475 1108 500 1095 q 429 1121 449 1121 q 386 1106 401 1121 q 362 1038 372 1090 l 270 1038 q 292 1153 275 1114 q 339 1214 308 1191 q 422 1237 371 1237 q 483 1224 453 1237 q 542 1195 514 1211 q 595 1166 571 1179 q 640 1153 620 1153 q 682 1169 667 1153 q 707 1237 697 1186 l 799 1237 q 755 1084 794 1130 q 647 1038 717 1038 "},"þ":{"x_min":96.9375,"x_max":791.0625,"ha":848,"o":"m 96 1006 l 287 1006 l 287 692 l 284 579 l 287 579 q 522 714 351 714 q 721 618 651 714 q 791 352 791 523 q 717 82 791 178 q 509 -14 644 -14 q 375 19 432 -14 q 287 116 318 53 l 283 116 q 287 -7 287 95 l 287 -288 l 96 -288 l 96 1006 m 592 352 q 554 525 592 469 q 441 581 517 581 q 324 519 364 581 q 284 346 284 457 q 325 176 284 236 q 439 116 365 116 q 592 352 592 116 "},"]":{"x_min":16.96875,"x_max":384.921875,"ha":463,"o":"m 16 -288 l 16 -158 l 205 -158 l 205 877 l 16 877 l 16 1006 l 384 1006 l 384 -288 l 16 -288 "},"m":{"x_min":91.5625,"x_max":1148.875,"ha":1235,"o":"m 529 0 l 529 411 q 417 604 529 604 q 323 545 360 604 q 287 393 287 486 l 287 0 l 96 0 l 96 569 q 95 666 96 628 q 91 734 93 704 l 273 734 q 278 665 275 721 q 282 587 282 609 l 284 587 q 372 710 320 672 q 498 748 425 748 q 702 587 666 748 l 706 587 q 796 710 743 673 q 929 748 848 748 q 1092 675 1036 748 q 1148 465 1148 602 l 1148 0 l 959 0 l 959 411 q 848 604 959 604 q 757 550 792 604 q 718 402 721 497 l 718 0 l 529 0 "},"8":{"x_min":44.109375,"x_max":730.25,"ha":773,"o":"m 730 268 q 641 60 730 134 q 387 -14 552 -14 q 134 59 223 -14 q 44 267 44 133 q 97 421 44 359 q 238 499 149 484 l 238 502 q 114 578 161 519 q 66 716 66 638 q 149 902 66 834 q 384 970 232 970 q 623 903 540 970 q 706 715 706 837 q 659 578 706 637 q 532 503 612 519 l 532 500 q 677 425 625 485 q 730 268 730 364 m 510 705 q 479 804 510 773 q 384 836 447 836 q 261 705 261 836 q 386 568 261 568 q 479 599 448 568 q 510 705 510 631 m 532 284 q 383 434 532 434 q 277 395 314 434 q 240 281 240 355 q 276 158 240 197 q 388 120 313 120 q 497 158 462 120 q 532 284 532 197 "},"R":{"x_min":92.90625,"x_max":974.515625,"ha":1003,"o":"m 749 0 l 527 363 l 292 363 l 292 0 l 92 0 l 92 956 l 570 956 q 834 882 741 956 q 927 671 927 808 q 870 497 927 570 q 716 401 813 424 l 974 0 l 749 0 m 725 662 q 549 800 725 800 l 292 800 l 292 518 l 554 518 q 682 556 638 518 q 725 662 725 594 "},"á":{"x_min":35.71875,"x_max":776.75,"ha":773,"o":"m 261 -14 q 95 44 155 -14 q 35 207 35 102 q 110 380 35 321 q 325 442 184 440 l 483 444 l 483 481 q 458 588 483 553 q 376 623 433 623 q 298 599 323 623 q 267 519 273 575 l 68 529 q 167 691 87 636 q 384 747 246 747 q 599 678 523 747 q 674 483 674 609 l 674 216 q 688 131 674 154 q 734 108 702 108 q 776 112 756 108 l 776 9 q 746 1 759 4 q 719 -3 732 -1 q 690 -7 705 -5 q 654 -8 675 -8 q 548 26 582 -8 q 507 130 514 61 l 503 130 q 261 -14 423 -14 m 483 339 l 385 338 q 291 323 319 335 q 249 287 263 311 q 234 222 234 262 q 258 144 234 169 q 322 118 282 118 q 404 143 367 118 q 462 210 441 167 q 483 302 483 254 l 483 339 m 255 802 l 255 822 l 425 1018 l 600 1018 l 600 988 l 370 802 l 255 802 "},"×":{"x_min":58.25,"x_max":752.75,"ha":811,"o":"m 58 220 l 299 463 l 60 702 l 168 808 l 406 570 l 645 809 l 752 702 l 514 462 l 752 224 l 645 116 l 406 356 l 165 113 l 58 220 "},"o":{"x_min":54.234375,"x_max":793.765625,"ha":848,"o":"m 793 367 q 694 87 793 188 q 420 -14 595 -14 q 151 87 249 -14 q 54 367 54 189 q 151 645 54 544 q 425 747 249 747 q 699 648 604 747 q 793 367 793 550 m 594 367 q 551 557 594 498 q 427 616 509 616 q 254 367 254 616 q 296 180 254 244 q 418 116 338 116 q 594 367 594 116 "},"5":{"x_min":42.75,"x_max":734.3125,"ha":773,"o":"m 734 318 q 639 76 734 166 q 380 -14 544 -14 q 149 50 236 -14 q 42 238 63 115 l 233 254 q 286 165 248 192 q 382 137 324 137 q 495 182 453 137 q 538 314 538 228 q 498 434 538 389 q 386 480 458 480 q 256 418 306 480 l 70 418 l 103 956 l 678 956 l 678 814 l 276 814 l 261 572 q 434 634 330 634 q 652 549 570 634 q 734 318 734 464 "},"õ":{"x_min":54.234375,"x_max":793.765625,"ha":848,"o":"m 793 367 q 694 87 793 188 q 420 -14 595 -14 q 151 87 249 -14 q 54 367 54 189 q 151 645 54 544 q 425 747 249 747 q 699 648 604 747 q 793 367 793 550 m 594 367 q 551 557 594 498 q 427 616 509 616 q 254 367 254 616 q 296 180 254 244 q 418 116 338 116 q 594 367 594 116 m 537 802 q 477 814 507 802 q 418 843 447 827 q 364 872 390 859 q 318 885 339 885 q 276 870 291 885 q 252 802 261 854 l 159 802 q 181 917 164 878 q 229 978 198 955 q 312 1001 260 1001 q 373 988 342 1001 q 432 959 403 975 q 485 930 460 943 q 529 917 510 917 q 572 933 556 917 q 596 1001 587 950 l 688 1001 q 645 848 683 894 q 537 802 607 802 "},"7":{"x_min":59.71875,"x_max":711.921875,"ha":773,"o":"m 711 804 q 590 607 647 702 q 489 414 532 511 q 422 216 447 318 q 397 0 397 114 l 198 0 q 230 231 198 119 q 320 458 261 342 q 534 799 379 574 l 59 799 l 59 956 l 711 956 l 711 804 "},"K":{"x_min":92.90625,"x_max":990.109375,"ha":1003,"o":"m 754 0 l 410 438 l 292 348 l 292 0 l 92 0 l 92 956 l 292 956 l 292 522 l 723 956 l 956 956 l 548 551 l 990 0 l 754 0 "},",":{"x_min":94.296875,"x_max":293.03125,"ha":386,"o":"m 293 44 q 275 -98 293 -36 q 219 -215 258 -161 l 94 -215 q 159 -109 134 -166 q 184 0 184 -51 l 97 0 l 97 207 l 293 207 l 293 44 "},"d":{"x_min":56.9375,"x_max":756.484375,"ha":848,"o":"m 572 0 q 565 51 569 10 q 561 118 561 91 l 559 118 q 324 -14 497 -14 q 126 86 196 -14 q 56 365 56 186 q 130 647 56 548 q 338 747 204 747 q 473 714 416 747 q 560 617 529 681 l 561 617 l 560 738 l 560 1006 l 751 1006 l 751 159 q 756 0 751 92 l 572 0 m 563 370 q 523 553 563 489 q 406 617 483 617 q 292 555 330 617 q 255 365 255 493 q 405 116 255 116 q 521 182 480 116 q 563 370 563 248 "},"¨":{"x_min":11,"x_max":453,"ha":463,"o":"m 305 813 l 305 962 l 453 962 l 453 813 l 305 813 m 11 813 l 11 962 l 156 962 l 156 813 l 11 813 "},"Ô":{"x_min":56.953125,"x_max":1021.6875,"ha":1080,"o":"m 1021 482 q 962 219 1021 332 q 793 46 903 106 q 537 -14 684 -14 q 184 118 312 -14 q 56 482 56 251 q 184 841 56 712 q 538 970 311 970 q 893 839 766 970 q 1021 482 1021 709 m 817 482 q 744 724 817 636 q 538 812 671 812 q 331 725 404 812 q 258 482 258 638 q 333 233 258 324 q 537 143 408 143 q 744 231 671 143 q 817 482 817 319 m 789 1057 l 789 1038 l 681 1038 l 543 1140 l 540 1140 l 397 1038 l 289 1038 l 289 1057 l 464 1245 l 619 1245 l 789 1057 "},"E":{"x_min":92.875,"x_max":871.765625,"ha":926,"o":"m 92 0 l 92 956 l 843 956 l 843 801 l 292 801 l 292 561 l 802 561 l 802 406 l 292 406 l 292 154 l 871 154 l 871 0 l 92 0 "},"Y":{"x_min":23.515625,"x_max":903.859375,"ha":926,"o":"m 563 392 l 563 0 l 363 0 l 363 392 l 23 956 l 233 956 l 462 551 l 694 956 l 903 956 l 563 392 "},"\"":{"x_min":91.625,"x_max":567.25,"ha":659,"o":"m 547 609 l 399 609 l 380 956 l 567 956 l 547 609 m 258 609 l 109 609 l 91 956 l 276 956 l 258 609 "},"‹":{"x_min":62.453125,"x_max":399.1875,"ha":463,"o":"m 237 95 l 62 340 l 62 388 l 237 637 l 397 637 l 397 612 l 225 364 l 399 119 l 399 95 l 237 95 "},"ê":{"x_min":54.296875,"x_max":725.5,"ha":773,"o":"m 397 -14 q 143 84 232 -14 q 54 369 54 182 q 144 649 54 551 q 400 747 234 747 q 642 642 558 747 q 725 335 725 537 l 725 329 l 254 329 q 294 168 254 222 q 407 113 333 113 q 534 201 508 113 l 714 185 q 397 -14 636 -14 m 397 626 q 294 580 330 626 q 255 449 257 533 l 541 449 q 498 582 535 537 q 397 626 460 626 m 651 821 l 651 802 l 544 802 l 406 932 l 403 932 l 260 802 l 152 802 l 152 821 l 326 1037 l 482 1037 l 651 821 "},"Ï":{"x_min":-28,"x_max":414,"ha":386,"o":"m 92 0 l 92 956 l 293 956 l 293 0 l 92 0 m 280 1038 l 280 1187 l 414 1187 l 414 1038 l 280 1038 m -28 1038 l -28 1187 l 103 1187 l 103 1038 l -28 1038 "},"„":{"x_min":102.484375,"x_max":591.6875,"ha":695,"o":"m 591 44 q 574 -99 591 -36 q 517 -215 556 -162 l 392 -215 q 458 -109 432 -166 q 483 0 483 -51 l 397 0 l 397 176 l 591 176 l 591 44 m 299 44 q 282 -100 299 -39 q 225 -215 265 -160 l 102 -215 q 167 -105 144 -162 q 191 0 191 -48 l 105 0 l 105 176 l 299 176 l 299 44 "},"Â":{"x_min":34.59375,"x_max":966.375,"ha":1003,"o":"m 768 0 l 683 244 l 319 244 l 234 0 l 34 0 l 383 956 l 619 956 l 966 0 l 768 0 m 501 808 l 497 793 q 480 738 490 769 q 364 395 471 707 l 638 395 l 544 669 l 515 761 l 501 808 m 751 1057 l 751 1038 l 643 1038 l 505 1140 l 502 1140 l 359 1038 l 251 1038 l 251 1057 l 426 1245 l 581 1245 l 751 1057 "},"Í":{"x_min":70,"x_max":415.90625,"ha":386,"o":"m 92 0 l 92 956 l 293 956 l 293 0 l 92 0 m 70 1038 l 70 1059 l 240 1231 l 415 1231 l 415 1201 l 185 1038 l 70 1038 "},"´":{"x_min":59.0625,"x_max":404.96875,"ha":463,"o":"m 59 802 l 59 822 l 229 1018 l 404 1018 l 404 988 l 174 802 l 59 802 "},"ì":{"x_min":-43.1875,"x_max":302.359375,"ha":386,"o":"m 98 0 l 98 734 l 288 734 l 288 0 l 98 0 m 187 802 l -43 988 l -43 1018 l 131 1018 l 302 822 l 302 802 l 187 802 "},"±":{"x_min":33.109375,"x_max":729.640625,"ha":762,"o":"m 457 479 l 457 248 l 305 248 l 305 479 l 33 479 l 33 631 l 305 631 l 305 861 l 457 861 l 457 631 l 729 631 l 729 479 l 457 479 m 33 0 l 33 151 l 729 151 l 729 0 l 33 0 "},"Ú":{"x_min":83.40625,"x_max":918.234375,"ha":1003,"o":"m 490 -14 q 188 82 292 -14 q 83 357 83 178 l 83 956 l 283 956 l 283 373 q 337 201 283 260 q 495 142 391 142 q 660 204 602 142 q 718 380 718 265 l 718 956 l 918 956 l 918 368 q 806 86 918 186 q 490 -14 693 -14 m 401 1038 l 401 1059 l 571 1231 l 746 1231 l 746 1201 l 516 1038 l 401 1038 "},"|":{"x_min":105.90625,"x_max":283.609375,"ha":389,"o":"m 105 -309 l 105 1006 l 283 1006 l 283 -309 l 105 -309 "},"§":{"x_min":35.96875,"x_max":716.671875,"ha":773,"o":"m 390 968 q 601 920 521 968 q 699 781 681 872 l 537 765 q 490 829 528 807 q 390 852 451 852 q 278 832 314 852 q 242 768 242 812 q 261 721 242 740 q 313 687 279 702 q 435 653 346 673 q 604 599 549 627 q 687 530 658 571 q 716 430 716 489 q 679 318 716 367 q 582 251 642 270 q 705 78 705 198 q 620 -94 705 -34 q 377 -155 535 -155 q 144 -107 226 -155 q 35 39 62 -60 l 196 65 q 252 -14 210 10 q 377 -39 293 -39 q 502 -17 460 -39 q 545 58 545 4 q 529 111 545 91 q 478 147 513 131 q 317 192 443 162 q 119 278 177 225 q 61 407 61 331 q 99 513 61 470 q 206 580 136 557 q 111 652 145 606 q 78 755 78 698 q 158 912 78 856 q 390 968 238 968 m 555 407 q 514 481 555 455 q 357 529 474 506 q 225 425 225 513 q 244 379 225 397 q 296 346 262 360 q 422 310 330 331 q 555 407 555 317 "},"Ý":{"x_min":23.515625,"x_max":903.859375,"ha":926,"o":"m 563 392 l 563 0 l 363 0 l 363 392 l 23 956 l 233 956 l 462 551 l 694 956 l 903 956 l 563 392 m 355 1038 l 355 1059 l 525 1231 l 700 1231 l 700 1201 l 470 1038 l 355 1038 "},"b":{"x_min":91.515625,"x_max":791.0625,"ha":848,"o":"m 791 369 q 718 86 791 187 q 509 -14 645 -14 q 374 19 431 -14 q 287 117 318 53 l 286 117 q 283 52 286 93 q 276 0 280 11 l 91 0 q 96 167 96 63 l 96 1006 l 287 1006 l 287 725 l 284 605 l 287 605 q 522 747 351 747 q 721 648 652 747 q 791 369 791 549 m 592 369 q 555 554 592 494 q 442 614 519 614 q 325 549 365 614 q 284 363 284 485 q 324 181 284 246 q 441 116 364 116 q 592 369 592 116 "},"q":{"x_min":56.9375,"x_max":755.140625,"ha":848,"o":"m 56 365 q 131 647 56 547 q 340 748 205 748 q 561 615 500 748 q 565 685 561 647 q 572 734 569 723 l 755 734 q 751 565 751 660 l 751 -288 l 561 -288 l 561 16 l 565 121 l 563 121 q 324 -14 500 -14 q 126 86 196 -14 q 56 365 56 186 m 563 370 q 523 552 563 487 q 408 617 484 617 q 255 365 255 617 q 406 116 255 116 q 522 182 481 116 q 563 370 563 248 "},"Ö":{"x_min":56.953125,"x_max":1021.6875,"ha":1080,"o":"m 1021 482 q 962 219 1021 332 q 793 46 903 106 q 537 -14 684 -14 q 184 118 312 -14 q 56 482 56 251 q 184 841 56 712 q 538 970 311 970 q 893 839 766 970 q 1021 482 1021 709 m 817 482 q 744 724 817 636 q 538 812 671 812 q 331 725 404 812 q 258 482 258 638 q 333 233 258 324 q 537 143 408 143 q 744 231 671 143 q 817 482 817 319 m 626 1038 l 626 1187 l 760 1187 l 760 1038 l 626 1038 m 318 1038 l 318 1187 l 449 1187 l 449 1038 l 318 1038 "},"z":{"x_min":55.65625,"x_max":644.78125,"ha":695,"o":"m 55 0 l 55 134 l 401 596 l 83 596 l 83 734 l 611 734 l 611 597 l 267 139 l 644 139 l 644 0 l 55 0 "},"ã":{"x_min":35.71875,"x_max":776.75,"ha":773,"o":"m 261 -14 q 95 44 155 -14 q 35 207 35 102 q 110 380 35 321 q 325 442 184 440 l 483 444 l 483 481 q 458 588 483 553 q 376 623 433 623 q 298 599 323 623 q 267 519 273 575 l 68 529 q 167 691 87 636 q 384 747 246 747 q 599 678 523 747 q 674 483 674 609 l 674 216 q 688 131 674 154 q 734 108 702 108 q 776 112 756 108 l 776 9 q 746 1 759 4 q 719 -3 732 -1 q 690 -7 705 -5 q 654 -8 675 -8 q 548 26 582 -8 q 507 130 514 61 l 503 130 q 261 -14 423 -14 m 483 339 l 385 338 q 291 323 319 335 q 249 287 263 311 q 234 222 234 262 q 258 144 234 169 q 322 118 282 118 q 404 143 367 118 q 462 210 441 167 q 483 302 483 254 l 483 339 m 488 802 q 428 814 458 802 q 369 843 398 827 q 315 872 341 859 q 269 885 290 885 q 227 870 242 885 q 203 802 212 854 l 110 802 q 132 917 115 878 q 180 978 149 955 q 263 1001 211 1001 q 324 988 293 1001 q 383 959 354 975 q 436 930 411 943 q 480 917 461 917 q 523 933 507 917 q 547 1001 538 950 l 639 1001 q 596 848 634 894 q 488 802 558 802 "},"æ":{"x_min":44.765625,"x_max":1177.359375,"ha":1235,"o":"m 849 -14 q 555 141 639 -14 q 275 -14 465 -14 q 105 44 166 -14 q 44 207 44 102 q 120 379 44 319 q 343 442 195 438 l 505 444 l 505 481 q 478 589 505 555 q 392 623 451 623 q 308 598 334 623 q 276 520 282 573 l 78 529 q 176 691 95 635 q 397 747 256 747 q 623 674 544 747 q 852 747 711 747 q 1093 642 1010 747 q 1177 335 1177 537 l 1177 322 l 706 322 q 746 168 706 223 q 859 113 786 113 q 986 201 960 113 l 1166 185 q 849 -14 1088 -14 m 336 118 q 422 145 383 118 q 483 216 461 171 q 505 309 505 260 l 505 339 l 402 338 q 303 323 332 335 q 258 287 274 311 q 243 222 243 262 q 268 144 243 169 q 336 118 294 118 m 849 626 q 746 580 782 626 q 708 449 710 533 l 992 449 q 950 582 987 537 q 849 626 912 626 "},"®":{"x_min":21.6875,"x_max":1001.984375,"ha":1023,"o":"m 1001 479 q 936 234 1001 348 q 756 54 871 119 q 511 -11 642 -11 q 263 57 378 -11 q 85 238 148 125 q 21 479 21 351 q 87 724 21 610 q 267 904 153 838 q 511 970 381 970 q 757 903 643 970 q 936 724 871 837 q 1001 479 1001 611 m 926 479 q 870 685 926 590 q 718 836 814 780 q 511 892 622 892 q 310 839 405 892 q 157 690 215 786 q 99 479 99 594 q 154 272 99 368 q 305 120 210 176 q 511 64 400 64 q 719 120 623 64 q 870 272 815 176 q 926 479 926 368 m 625 201 l 505 413 l 425 413 l 425 201 l 305 201 l 305 754 l 528 754 q 684 710 632 754 q 735 589 735 666 q 703 486 735 526 q 617 429 670 446 l 762 201 l 625 201 m 613 588 q 588 647 613 627 q 515 667 562 667 l 425 667 l 425 501 l 523 501 q 590 525 568 501 q 613 588 613 549 "},"É":{"x_min":92.875,"x_max":871.765625,"ha":926,"o":"m 92 0 l 92 956 l 843 956 l 843 801 l 292 801 l 292 561 l 802 561 l 802 406 l 292 406 l 292 154 l 871 154 l 871 0 l 92 0 m 350 1038 l 350 1059 l 520 1231 l 695 1231 l 695 1201 l 465 1038 l 350 1038 "},"~":{"x_min":54.921875,"x_max":758.78125,"ha":811,"o":"m 577 350 q 477 364 526 350 q 377 396 428 378 q 227 428 286 428 q 139 413 179 428 q 54 368 99 398 l 54 512 q 238 569 131 569 q 402 537 309 569 q 526 498 492 506 q 590 490 560 490 q 758 552 681 490 l 758 404 q 675 362 715 374 q 577 350 636 350 "},"³":{"x_min":29.875,"x_max":433.125,"ha":463,"o":"m 433 607 q 382 502 433 540 q 237 464 331 464 q 92 499 145 464 q 29 604 38 534 l 158 613 q 235 550 164 550 q 304 615 304 550 q 210 678 304 678 l 172 678 l 172 764 l 207 764 q 271 779 249 764 q 293 824 293 795 q 277 866 293 851 q 232 880 262 880 q 166 821 173 880 l 40 829 q 99 929 47 892 q 236 967 151 967 q 371 932 323 967 q 420 839 420 897 q 395 765 420 796 q 317 723 370 734 l 317 722 q 403 685 373 716 q 433 607 433 654 "},"¡":{"x_min":131.71875,"x_max":331.109375,"ha":463,"o":"m 135 551 l 135 734 l 331 734 l 331 551 l 135 551 m 131 -222 l 153 444 l 309 444 l 331 -222 l 131 -222 "},"[":{"x_min":78.078125,"x_max":446.03125,"ha":463,"o":"m 78 -288 l 78 1006 l 446 1006 l 446 877 l 258 877 l 258 -158 l 446 -158 l 446 -288 l 78 -288 "},"L":{"x_min":92.859375,"x_max":805.296875,"ha":848,"o":"m 92 0 l 92 956 l 292 956 l 292 154 l 805 154 l 805 0 l 92 0 "}," ":{"x_min":0,"x_max":0,"ha":386},"%":{"x_min":34.59375,"x_max":1198.375,"ha":1235,"o":"m 1198 292 q 1137 66 1198 144 q 958 -11 1076 -11 q 778 66 838 -11 q 718 292 718 143 q 776 520 718 444 q 961 597 834 597 q 1140 520 1083 597 q 1198 292 1198 443 m 374 0 l 234 0 l 858 956 l 1000 956 l 374 0 m 276 966 q 456 889 398 966 q 515 662 515 812 q 454 436 515 514 q 273 358 392 358 q 94 435 155 358 q 34 662 34 513 q 92 891 34 816 q 276 966 151 966 m 1052 292 q 1031 446 1052 400 q 961 492 1011 492 q 886 445 906 492 q 865 292 865 399 q 887 139 865 184 q 959 95 908 95 q 1030 141 1009 95 q 1052 292 1052 187 m 368 662 q 347 814 368 768 q 276 860 326 860 q 201 815 222 860 q 180 662 180 769 q 202 509 180 555 q 275 463 224 463 q 346 509 325 463 q 368 662 368 555 "},"P":{"x_min":92.875,"x_max":878.546875,"ha":926,"o":"m 878 653 q 836 488 878 561 q 716 376 794 416 q 530 337 637 337 l 292 337 l 292 0 l 92 0 l 92 956 l 521 956 q 786 877 693 956 q 878 653 878 798 m 677 650 q 499 800 677 800 l 292 800 l 292 490 l 505 490 q 632 531 587 490 q 677 650 677 572 "},"À":{"x_min":34.59375,"x_max":966.375,"ha":1003,"o":"m 768 0 l 683 244 l 319 244 l 234 0 l 34 0 l 383 956 l 619 956 l 966 0 l 768 0 m 501 808 l 497 793 q 480 738 490 769 q 364 395 471 707 l 638 395 l 544 669 l 515 761 l 501 808 m 522 1038 l 292 1201 l 292 1231 l 466 1231 l 637 1059 l 637 1038 l 522 1038 "},"_":{"x_min":-13.5625,"x_max":785.203125,"ha":773,"o":"m -13 -169 l -13 -117 l 785 -117 l 785 -169 l -13 -169 "},"ñ":{"x_min":91.515625,"x_max":761.90625,"ha":848,"o":"m 572 0 l 572 411 q 441 604 572 604 q 329 545 372 604 q 287 393 287 486 l 287 0 l 96 0 l 96 569 q 95 666 96 628 q 91 734 93 704 l 273 734 q 278 665 275 721 q 282 587 282 609 l 284 587 q 381 710 323 672 q 520 748 440 748 q 699 676 637 748 q 761 465 761 604 l 761 0 l 572 0 m 548 802 q 488 814 518 802 q 429 843 458 827 q 375 872 401 859 q 329 885 350 885 q 287 870 302 885 q 263 802 272 854 l 170 802 q 192 917 175 878 q 240 978 209 955 q 323 1001 271 1001 q 384 988 353 1001 q 443 959 414 975 q 496 930 471 943 q 540 917 521 917 q 583 933 567 917 q 607 1001 598 950 l 699 1001 q 656 848 694 894 q 548 802 618 802 "},"+":{"x_min":58.265625,"x_max":754.796875,"ha":811,"o":"m 482 386 l 482 109 l 328 109 l 328 386 l 58 386 l 58 538 l 328 538 l 328 814 l 482 814 l 482 538 l 754 538 l 754 386 l 482 386 "},"‚":{"x_min":93.625,"x_max":292.34375,"ha":386,"o":"m 292 44 q 275 -99 292 -36 q 219 -215 257 -161 l 93 -215 q 160 -106 136 -163 q 184 0 184 -49 l 97 0 l 97 176 l 292 176 l 292 44 "},"½":{"x_min":63.75,"x_max":1093.296875,"ha":1158,"o":"m 355 0 l 219 0 l 826 955 l 962 955 l 355 0 m 63 470 l 63 552 l 188 552 l 188 870 l 71 796 l 71 879 l 193 959 l 311 959 l 311 552 l 427 552 l 427 470 l 63 470 m 695 0 l 694 81 q 750 158 714 122 q 847 233 786 193 q 928 296 906 271 q 950 347 950 321 q 895 409 950 409 q 830 343 837 409 l 699 346 q 759 454 708 413 q 895 495 811 495 q 1034 458 984 495 q 1084 353 1084 420 q 980 202 1084 268 q 884 136 910 157 q 847 92 858 115 l 1093 92 l 1093 0 l 695 0 "},"Æ":{"x_min":3,"x_max":1334.75,"ha":1389,"o":"m 631 0 l 631 244 l 326 244 l 209 0 l 3 0 l 477 956 l 1306 956 l 1306 802 l 831 802 l 831 561 l 1264 561 l 1264 411 l 831 411 l 831 153 l 1334 153 l 1334 0 l 631 0 m 631 808 l 590 808 q 395 395 557 733 l 631 395 l 631 808 "},"Ë":{"x_min":92.875,"x_max":871.765625,"ha":926,"o":"m 92 0 l 92 956 l 843 956 l 843 801 l 292 801 l 292 561 l 802 561 l 802 406 l 292 406 l 292 154 l 871 154 l 871 0 l 92 0 m 570 1038 l 570 1187 l 704 1187 l 704 1038 l 570 1038 m 262 1038 l 262 1187 l 393 1187 l 393 1038 l 262 1038 "},"'":{"x_min":73.859375,"x_max":258.34375,"ha":330,"o":"m 240 609 l 91 609 l 73 956 l 258 956 l 240 609 "},"ª":{"x_min":30.515625,"x_max":514.015625,"ha":514,"o":"m 174 492 q 69 527 108 492 q 30 628 30 563 q 223 771 30 768 l 322 773 l 322 801 q 252 881 322 881 q 176 818 183 881 l 47 824 q 112 926 59 890 q 251 962 166 962 q 395 920 345 962 q 446 802 446 879 l 446 642 q 452 593 446 609 q 480 576 458 576 l 514 580 l 514 506 q 433 494 469 494 q 357 518 385 494 q 326 584 330 543 l 324 584 q 174 492 276 492 m 222 580 q 293 613 263 580 q 322 689 322 645 l 322 707 l 260 706 q 179 688 200 704 q 158 638 158 672 q 222 580 158 580 "},"ð":{"x_min":54.234375,"x_max":793.765625,"ha":848,"o":"m 580 858 q 793 367 793 641 l 793 364 q 695 87 793 187 q 422 -12 597 -12 q 153 78 252 -12 q 54 325 54 168 q 152 571 54 482 q 424 660 250 660 q 535 638 496 660 q 433 797 492 730 l 235 715 l 235 839 l 348 886 q 173 1006 288 934 l 372 1006 q 480 942 437 973 l 662 1019 l 662 891 l 580 858 m 594 323 q 551 480 594 432 q 427 529 509 529 q 254 323 254 529 q 296 170 254 223 q 418 116 338 116 q 548 165 503 116 q 594 323 594 214 "},"T":{"x_min":15.59375,"x_max":833.09375,"ha":848,"o":"m 524 801 l 524 0 l 324 0 l 324 801 l 15 801 l 15 956 l 833 956 l 833 801 l 524 801 "},"Þ":{"x_min":92.875,"x_max":878.546875,"ha":926,"o":"m 878 500 q 837 339 878 409 q 717 230 796 269 q 530 192 638 192 l 292 192 l 292 0 l 92 0 l 92 956 l 292 956 l 292 798 l 522 798 q 786 721 694 798 q 878 500 878 644 m 677 497 q 632 614 677 572 q 499 656 588 656 l 292 656 l 292 334 l 505 334 q 632 377 587 334 q 677 497 677 420 "},"j":{"x_min":-21.6875,"x_max":288.265625,"ha":386,"o":"m 97 865 l 97 1006 l 288 1006 l 288 865 l 97 865 m 93 -288 q -21 -281 25 -288 l -21 -147 l 12 -150 q 79 -128 61 -150 q 97 -40 97 -107 l 97 734 l 288 734 l 288 -86 q 239 -235 288 -183 q 93 -288 189 -288 "},"1":{"x_min":87.703125,"x_max":734.0625,"ha":773,"o":"m 87 0 l 87 141 l 324 141 l 324 793 l 95 651 l 95 800 l 334 956 l 514 956 l 514 141 l 734 141 l 734 0 l 87 0 "},"›":{"x_min":63.140625,"x_max":399.859375,"ha":463,"o":"m 63 95 l 63 119 l 237 364 l 64 612 l 64 637 l 225 637 l 399 388 l 399 340 l 225 95 l 63 95 "},"ı":{"x_min":98.359375,"x_max":288.9375,"ha":386,"o":"m 98 0 l 98 734 l 288 734 l 288 0 l 98 0 "},"ä":{"x_min":35.71875,"x_max":776.75,"ha":773,"o":"m 261 -14 q 95 44 155 -14 q 35 207 35 102 q 110 380 35 321 q 325 442 184 440 l 483 444 l 483 481 q 458 588 483 553 q 376 623 433 623 q 298 599 323 623 q 267 519 273 575 l 68 529 q 167 691 87 636 q 384 747 246 747 q 599 678 523 747 q 674 483 674 609 l 674 216 q 688 131 674 154 q 734 108 702 108 q 776 112 756 108 l 776 9 q 746 1 759 4 q 719 -3 732 -1 q 690 -7 705 -5 q 654 -8 675 -8 q 548 26 582 -8 q 507 130 514 61 l 503 130 q 261 -14 423 -14 m 483 339 l 385 338 q 291 323 319 335 q 249 287 263 311 q 234 222 234 262 q 258 144 234 169 q 322 118 282 118 q 404 143 367 118 q 462 210 441 167 q 483 302 483 254 l 483 339 m 452 813 l 452 962 l 600 962 l 600 813 l 452 813 m 158 813 l 158 962 l 303 962 l 303 813 l 158 813 "},"<":{"x_min":58.3125,"x_max":754.71875,"ha":811,"o":"m 58 350 l 58 568 l 754 834 l 754 679 l 189 459 l 754 238 l 754 85 l 58 350 "},"£":{"x_min":14.265625,"x_max":758.75,"ha":773,"o":"m 758 246 q 666 64 737 129 q 492 0 595 0 l 21 0 l 21 139 q 116 227 90 178 q 141 347 141 276 l 141 409 l 14 409 l 14 525 l 135 525 l 135 693 q 207 899 135 829 q 424 970 280 970 q 604 923 538 970 q 700 772 670 876 l 542 741 q 500 816 528 793 q 427 840 472 840 q 338 801 365 840 q 311 677 311 762 l 311 525 l 505 525 l 505 409 l 311 409 l 311 348 q 283 229 311 278 q 187 141 255 179 l 445 141 q 552 175 516 141 q 600 273 589 209 l 758 246 "},"¹":{"x_min":55.78125,"x_max":419.3125,"ha":463,"o":"m 55 471 l 55 553 l 180 553 l 180 870 l 63 797 l 63 879 l 185 959 l 304 959 l 304 553 l 419 553 l 419 471 l 55 471 "},"t":{"x_min":17.0625,"x_max":445.703125,"ha":463,"o":"m 284 -12 q 155 33 200 -12 q 109 172 109 79 l 109 605 l 17 605 l 17 734 l 119 734 l 179 906 l 298 906 l 298 734 l 437 734 l 437 605 l 298 605 l 298 224 q 318 145 298 170 q 381 119 339 119 q 445 129 404 119 l 445 11 q 284 -12 375 -12 "},"¬":{"x_min":56.953125,"x_max":753.359375,"ha":811,"o":"m 601 96 l 601 386 l 56 386 l 56 538 l 753 538 l 753 96 l 601 96 "},"ù":{"x_min":86.09375,"x_max":756.484375,"ha":848,"o":"m 276 734 l 276 321 q 406 128 276 128 q 518 187 475 128 q 560 340 560 247 l 560 734 l 751 734 l 751 164 q 756 0 751 70 l 574 0 q 566 145 566 97 l 563 145 q 466 23 525 61 q 327 -14 408 -14 q 148 57 210 -14 q 86 267 86 129 l 86 734 l 276 734 m 422 802 l 191 988 l 191 1018 l 366 1018 l 537 822 l 537 802 l 422 802 "},"W":{"x_min":1.359375,"x_max":1309.640625,"ha":1311,"o":"m 1062 0 l 825 0 l 695 552 q 655 757 672 650 q 629 621 639 668 q 484 0 619 575 l 247 0 l 1 956 l 204 956 l 342 338 l 373 189 q 410 369 392 283 q 545 956 428 455 l 769 956 l 890 447 q 938 189 904 390 l 955 268 l 991 424 l 1106 956 l 1309 956 l 1062 0 "},"ï":{"x_min":-27,"x_max":415,"ha":386,"o":"m 98 0 l 98 734 l 288 734 l 288 0 l 98 0 m 267 813 l 267 962 l 415 962 l 415 813 l 267 813 m -27 813 l -27 962 l 118 962 l 118 813 l -27 813 "},">":{"x_min":58.3125,"x_max":754.71875,"ha":811,"o":"m 58 85 l 58 238 l 622 459 l 58 679 l 58 834 l 754 568 l 754 350 l 58 85 "},"v":{"x_min":5.421875,"x_max":766.890625,"ha":773,"o":"m 496 0 l 268 0 l 5 734 l 206 734 l 335 323 q 383 153 345 289 q 411 251 390 181 q 567 734 432 321 l 766 734 l 496 0 "},"û":{"x_min":86.09375,"x_max":756.484375,"ha":848,"o":"m 276 734 l 276 321 q 406 128 276 128 q 518 187 475 128 q 560 340 560 247 l 560 734 l 751 734 l 751 164 q 756 0 751 70 l 574 0 q 566 145 566 97 l 563 145 q 466 23 525 61 q 327 -14 408 -14 q 148 57 210 -14 q 86 267 86 129 l 86 734 l 276 734 m 670 821 l 670 802 l 563 802 l 425 932 l 422 932 l 279 802 l 171 802 l 171 821 l 345 1037 l 501 1037 l 670 821 "},"Ò":{"x_min":56.953125,"x_max":1021.6875,"ha":1080,"o":"m 1021 482 q 962 219 1021 332 q 793 46 903 106 q 537 -14 684 -14 q 184 118 312 -14 q 56 482 56 251 q 184 841 56 712 q 538 970 311 970 q 893 839 766 970 q 1021 482 1021 709 m 817 482 q 744 724 817 636 q 538 812 671 812 q 331 725 404 812 q 258 482 258 638 q 333 233 258 324 q 537 143 408 143 q 744 231 671 143 q 817 482 817 319 m 601 1038 l 371 1201 l 371 1231 l 545 1231 l 716 1059 l 716 1038 l 601 1038 "},"&":{"x_min":61.03125,"x_max":959.59375,"ha":1003,"o":"m 61 260 q 115 423 61 352 q 290 551 170 495 q 240 740 240 652 q 306 903 240 846 q 495 961 372 961 q 675 906 609 961 q 741 759 741 852 q 715 665 741 707 q 640 587 689 623 q 476 496 592 551 q 641 268 543 378 q 748 515 712 375 l 890 467 q 759 182 844 309 q 880 133 817 133 q 959 144 924 133 l 959 6 q 870 -8 922 -8 q 753 12 812 -8 q 646 73 695 33 q 389 -14 531 -14 q 147 58 233 -14 q 61 260 61 130 m 589 758 q 564 821 589 796 q 494 845 538 845 q 414 816 442 845 q 387 739 387 787 q 423 608 387 680 q 525 659 495 638 q 573 704 556 680 q 589 758 589 728 m 534 166 q 349 422 421 291 q 233 263 233 367 q 277 155 233 196 q 397 114 321 114 q 477 131 441 114 q 534 166 512 147 "},"Ð":{"x_min":5.40625,"x_max":944.671875,"ha":1003,"o":"m 944 485 q 886 226 944 337 q 722 58 828 116 q 479 0 616 0 l 92 0 l 92 403 l 5 403 l 5 552 l 92 552 l 92 956 l 438 956 q 812 834 680 956 q 944 485 944 712 m 743 485 q 663 718 743 637 q 434 799 584 799 l 292 799 l 292 552 l 534 552 l 534 403 l 292 403 l 292 156 l 462 156 q 667 244 592 156 q 743 485 743 332 "},"I":{"x_min":92.9375,"x_max":293.015625,"ha":386,"o":"m 92 0 l 92 956 l 293 956 l 293 0 l 92 0 "},"G":{"x_min":56.953125,"x_max":993.890625,"ha":1080,"o":"m 546 142 q 697 165 624 142 q 810 223 770 188 l 810 356 l 577 356 l 577 504 l 993 504 l 993 152 q 796 30 917 74 q 541 -14 674 -14 q 182 115 307 -14 q 56 482 56 244 q 183 844 56 718 q 545 970 309 970 q 973 720 882 970 l 789 665 q 695 775 759 737 q 545 812 631 812 q 331 727 404 812 q 258 482 258 641 q 333 231 258 319 q 546 142 409 142 "},"`":{"x_min":44.8125,"x_max":390.359375,"ha":463,"o":"m 275 802 l 44 988 l 44 1018 l 219 1018 l 390 822 l 390 802 l 275 802 "},"·":{"x_min":95.71875,"x_max":291.046875,"ha":463,"o":"m 95 360 l 95 566 l 291 566 l 291 360 l 95 360 "},"r":{"x_min":91.640625,"x_max":519.953125,"ha":541,"o":"m 97 0 l 97 561 q 95 662 97 622 q 91 734 93 702 l 273 734 q 278 659 275 721 q 282 577 282 597 l 284 577 q 334 685 312 654 q 386 732 356 717 q 460 748 416 748 q 519 737 497 748 l 519 578 q 438 588 473 588 q 327 530 367 588 q 287 360 287 473 l 287 0 l 97 0 "},"¿":{"x_min":77.28125,"x_max":781.5625,"ha":848,"o":"m 77 38 q 106 156 77 103 q 216 265 136 208 l 269 303 q 337 370 314 336 q 361 445 359 404 l 543 445 q 503 321 538 375 q 401 220 468 266 q 299 131 328 169 q 269 46 269 93 q 308 -48 269 -13 q 418 -82 347 -82 q 533 -42 487 -82 q 588 63 580 -2 l 781 54 q 668 -159 763 -82 q 421 -236 573 -236 q 169 -163 260 -236 q 77 38 77 -90 m 548 734 l 548 551 l 352 551 l 352 734 l 548 734 "},"ý":{"x_min":10.859375,"x_max":765.53125,"ha":773,"o":"m 192 -288 q 71 -279 123 -288 l 71 -143 q 137 -148 107 -148 q 205 -136 178 -148 q 253 -93 232 -123 q 301 7 274 -63 l 10 734 l 212 734 l 327 389 q 396 163 354 315 l 413 227 l 457 387 l 566 734 l 765 734 l 475 -39 q 353 -233 416 -179 q 192 -288 291 -288 m 281 802 l 281 822 l 451 1018 l 626 1018 l 626 988 l 396 802 l 281 802 "},"x":{"x_min":9.5,"x_max":762.8125,"ha":773,"o":"m 555 0 l 384 265 l 212 0 l 9 0 l 278 379 l 22 734 l 228 734 l 384 493 l 540 734 l 747 734 l 492 381 l 762 0 l 555 0 "},"è":{"x_min":54.296875,"x_max":725.5,"ha":773,"o":"m 397 -14 q 143 84 232 -14 q 54 369 54 182 q 144 649 54 551 q 400 747 234 747 q 642 642 558 747 q 725 335 725 537 l 725 329 l 254 329 q 294 168 254 222 q 407 113 333 113 q 534 201 508 113 l 714 185 q 397 -14 636 -14 m 397 626 q 294 580 330 626 q 255 449 257 533 l 541 449 q 498 582 535 537 q 397 626 460 626 m 425 802 l 194 988 l 194 1018 l 369 1018 l 540 822 l 540 802 l 425 802 "},"º":{"x_min":30.5,"x_max":483.28125,"ha":507,"o":"m 483 727 q 422 554 483 617 q 254 492 361 492 q 90 554 151 492 q 30 727 30 616 q 90 899 30 837 q 256 962 149 962 q 424 901 365 962 q 483 727 483 841 m 347 727 q 327 832 347 799 q 258 865 307 865 q 186 831 208 865 q 164 727 164 798 q 186 621 164 655 q 253 586 208 586 q 325 621 304 586 q 347 727 347 655 "},"Ø":{"x_min":56.953125,"x_max":1022.375,"ha":1080,"o":"m 99 -49 l 204 97 q 56 482 56 231 q 184 841 56 712 q 538 970 311 970 q 778 919 673 970 l 834 999 l 965 999 l 869 861 q 983 700 945 797 q 1022 482 1022 604 q 963 219 1022 332 q 794 46 904 106 q 537 -14 685 -14 q 293 38 393 -14 l 231 -49 l 99 -49 m 818 482 q 759 704 818 619 l 393 180 q 537 142 454 142 q 745 231 672 142 q 818 482 818 319 m 258 482 q 315 256 258 342 l 680 778 q 538 812 618 812 q 331 725 404 812 q 258 482 258 638 "},"÷":{"x_min":33.09375,"x_max":729.625,"ha":762,"o":"m 299 651 l 299 810 l 461 810 l 461 651 l 299 651 m 33 386 l 33 538 l 729 538 l 729 386 l 33 386 m 299 115 l 299 273 l 461 273 l 461 115 l 299 115 "},"h":{"x_min":96.9375,"x_max":761.90625,"ha":848,"o":"m 284 586 q 381 709 323 671 q 520 747 440 747 q 699 675 637 747 q 761 465 761 603 l 761 0 l 572 0 l 572 410 q 441 603 572 603 q 329 544 372 603 q 287 392 287 485 l 287 0 l 96 0 l 96 1006 l 287 1006 l 287 731 q 282 586 287 657 l 284 586 "},".":{"x_min":94.296875,"x_max":290.3125,"ha":386,"o":"m 94 0 l 94 207 l 290 207 l 290 0 l 94 0 "},"f":{"x_min":23.875,"x_max":465.40625,"ha":463,"o":"m 320 605 l 320 0 l 131 0 l 131 605 l 23 605 l 23 734 l 131 734 l 131 810 q 183 957 131 909 q 344 1006 236 1006 q 465 995 398 1006 l 465 872 q 409 878 437 878 q 340 859 360 878 q 320 791 320 840 l 320 734 l 465 734 l 465 605 l 320 605 "},"“":{"x_min":102.484375,"x_max":591.6875,"ha":695,"o":"m 392 564 l 392 696 q 411 842 392 780 q 468 956 429 903 l 591 956 q 526 846 549 903 q 502 741 502 789 l 588 741 l 588 564 l 392 564 m 102 564 l 102 696 q 120 841 102 778 q 175 956 137 903 l 299 956 q 234 846 257 903 q 211 741 211 789 l 297 741 l 297 564 l 102 564 "},"6":{"x_min":50.90625,"x_max":722.78125,"ha":773,"o":"m 722 312 q 637 72 722 159 q 401 -14 551 -14 q 141 104 232 -14 q 50 455 50 222 q 142 840 50 711 q 405 970 234 970 q 597 916 527 970 q 696 750 667 862 l 517 725 q 401 819 491 819 q 281 742 325 819 q 237 509 237 666 q 322 587 267 560 q 445 615 376 615 q 648 533 573 615 q 722 312 722 452 m 531 306 q 493 431 531 388 q 390 474 456 474 q 289 434 327 474 q 250 327 250 393 q 290 189 250 243 q 394 134 330 134 q 495 180 459 134 q 531 306 531 226 "},"A":{"x_min":34.59375,"x_max":966.375,"ha":1003,"o":"m 768 0 l 683 244 l 319 244 l 234 0 l 34 0 l 383 956 l 619 956 l 966 0 l 768 0 m 501 808 l 497 793 q 480 738 490 769 q 364 395 471 707 l 638 395 l 544 669 l 515 761 l 501 808 "},"‘":{"x_min":94.296875,"x_max":291.671875,"ha":386,"o":"m 94 564 l 94 696 q 111 841 94 778 q 167 956 129 903 l 291 956 q 226 846 249 903 q 202 741 202 789 l 288 741 l 288 564 l 94 564 "},"O":{"x_min":56.953125,"x_max":1021.6875,"ha":1080,"o":"m 1021 482 q 962 219 1021 332 q 793 46 903 106 q 537 -14 684 -14 q 184 118 312 -14 q 56 482 56 251 q 184 841 56 712 q 538 970 311 970 q 893 839 766 970 q 1021 482 1021 709 m 817 482 q 744 724 817 636 q 538 812 671 812 q 331 725 404 812 q 258 482 258 638 q 333 233 258 324 q 537 143 408 143 q 744 231 671 143 q 817 482 817 319 "},"n":{"x_min":91.515625,"x_max":761.90625,"ha":848,"o":"m 572 0 l 572 411 q 441 604 572 604 q 329 545 372 604 q 287 393 287 486 l 287 0 l 96 0 l 96 569 q 95 666 96 628 q 91 734 93 704 l 273 734 q 278 665 275 721 q 282 587 282 609 l 284 587 q 381 710 323 672 q 520 748 440 748 q 699 676 637 748 q 761 465 761 604 l 761 0 l 572 0 "},"3":{"x_min":31.890625,"x_max":722.78125,"ha":773,"o":"m 722 264 q 634 57 722 130 q 383 -16 546 -16 q 138 54 229 -16 q 31 259 47 125 l 225 276 q 382 138 244 138 q 489 172 451 138 q 527 276 527 206 q 481 374 527 340 q 344 408 435 408 l 277 408 l 277 562 l 340 562 q 463 595 422 562 q 505 691 505 629 q 472 784 505 750 q 375 818 439 818 q 280 785 316 818 q 238 693 244 752 l 48 706 q 150 900 63 830 q 379 970 238 970 q 613 902 529 970 q 698 715 698 834 q 645 568 698 625 q 494 491 593 510 l 494 488 q 663 416 604 475 q 722 264 722 357 "},"9":{"x_min":48.1875,"x_max":721.421875,"ha":773,"o":"m 721 492 q 628 112 721 238 q 364 -14 535 -14 q 166 40 238 -14 q 65 210 95 94 l 244 236 q 366 135 270 135 q 489 212 446 135 q 534 439 532 289 q 449 359 508 388 q 323 331 391 331 q 122 416 196 331 q 48 649 48 502 q 135 885 48 800 q 382 970 222 970 q 637 850 553 970 q 721 492 721 731 m 519 626 q 480 768 519 715 q 377 820 441 820 q 277 774 314 820 q 241 648 241 729 q 277 520 241 568 q 378 472 313 472 q 479 514 439 472 q 519 626 519 556 "},"l":{"x_min":97.015625,"x_max":287.59375,"ha":386,"o":"m 97 0 l 97 1006 l 287 1006 l 287 0 l 97 0 "},"¤":{"x_min":38.78125,"x_max":733.65625,"ha":773,"o":"m 91 464 q 131 614 91 545 l 41 704 l 148 810 l 236 719 q 386 760 305 760 q 534 719 468 760 l 626 811 l 733 704 l 641 612 q 682 464 682 545 q 642 317 682 384 l 733 227 l 626 118 l 536 210 q 386 170 468 170 q 236 208 303 170 l 145 116 l 38 223 l 130 315 q 91 464 91 383 m 244 465 q 285 365 244 407 q 386 323 327 323 q 485 366 443 323 q 527 465 527 408 q 486 565 527 524 q 386 607 444 607 q 286 566 327 607 q 244 465 244 524 "},"4":{"x_min":21.03125,"x_max":765.453125,"ha":773,"o":"m 637 195 l 637 0 l 456 0 l 456 195 l 21 195 l 21 338 l 424 956 l 637 956 l 637 337 l 765 337 l 765 195 l 637 195 m 456 649 q 458 728 456 686 q 462 783 460 771 q 398 673 444 745 l 176 337 l 456 337 l 456 649 "},"p":{"x_min":91.515625,"x_max":791.0625,"ha":848,"o":"m 791 369 q 717 86 791 186 q 509 -14 644 -14 q 375 19 432 -14 q 287 116 318 53 l 283 116 q 287 -7 287 95 l 287 -288 l 96 -288 l 96 565 q 91 734 96 668 l 276 734 q 282 685 280 721 q 284 614 284 649 l 287 614 q 522 749 351 749 q 720 650 650 749 q 791 369 791 551 m 592 369 q 441 616 592 616 q 325 550 365 616 q 284 364 284 483 q 325 180 284 245 q 439 116 365 116 q 592 369 592 116 "},"à":{"x_min":35.71875,"x_max":776.75,"ha":773,"o":"m 261 -14 q 95 44 155 -14 q 35 207 35 102 q 110 380 35 321 q 325 442 184 440 l 483 444 l 483 481 q 458 588 483 553 q 376 623 433 623 q 298 599 323 623 q 267 519 273 575 l 68 529 q 167 691 87 636 q 384 747 246 747 q 599 678 523 747 q 674 483 674 609 l 674 216 q 688 131 674 154 q 734 108 702 108 q 776 112 756 108 l 776 9 q 746 1 759 4 q 719 -3 732 -1 q 690 -7 705 -5 q 654 -8 675 -8 q 548 26 582 -8 q 507 130 514 61 l 503 130 q 261 -14 423 -14 m 483 339 l 385 338 q 291 323 319 335 q 249 287 263 311 q 234 222 234 262 q 258 144 234 169 q 322 118 282 118 q 404 143 367 118 q 462 210 441 167 q 483 302 483 254 l 483 339 m 394 802 l 163 988 l 163 1018 l 338 1018 l 509 822 l 509 802 l 394 802 "},"Ü":{"x_min":83.40625,"x_max":918.234375,"ha":1003,"o":"m 490 -14 q 188 82 292 -14 q 83 357 83 178 l 83 956 l 283 956 l 283 373 q 337 201 283 260 q 495 142 391 142 q 660 204 602 142 q 718 380 718 265 l 718 956 l 918 956 l 918 368 q 806 86 918 186 q 490 -14 693 -14 m 588 1038 l 588 1187 l 722 1187 l 722 1038 l 588 1038 m 280 1038 l 280 1187 l 411 1187 l 411 1038 l 280 1038 "},"ó":{"x_min":54.234375,"x_max":793.765625,"ha":848,"o":"m 793 367 q 694 87 793 188 q 420 -14 595 -14 q 151 87 249 -14 q 54 367 54 189 q 151 645 54 544 q 425 747 249 747 q 699 648 604 747 q 793 367 793 550 m 594 367 q 551 557 594 498 q 427 616 509 616 q 254 367 254 616 q 296 180 254 244 q 418 116 338 116 q 594 367 594 116 m 315 802 l 315 822 l 485 1018 l 660 1018 l 660 988 l 430 802 l 315 802 "},"⁴":{"x_min":24,"x_max":451.265625,"ha":463,"o":"m 381 566 l 381 471 l 257 471 l 257 566 l 24 566 l 24 666 l 238 959 l 381 959 l 381 661 l 451 661 l 451 566 l 381 566 m 260 865 l 252 852 q 215 792 234 820 l 120 661 l 257 661 l 257 792 l 260 865 "}}}
